<svg width="193" height="56" viewBox="0 0 193 56" fill="none" xmlns="http://www.w3.org/2000/svg">
<g filter="url(#filter0_d_2001_1077)">
<rect x="20.3337" y="11.2568" width="160.893" height="23.9465" rx="5.44239" transform="rotate(0.179612 20.3337 11.2568)" fill="white" shape-rendering="crispEdges"/>
<rect x="33.3816" y="15.6514" width="15.2387" height="15.2387" rx="2.17696" transform="rotate(0.179612 33.3816 15.6514)" fill="#EFF9FF"/>
<path d="M40.9678 26.2336L43.3391 27.5774C43.7734 27.8237 44.3069 27.4633 44.1938 27.0051L43.5721 24.4902L45.6781 22.8038C46.0626 22.4962 45.8584 21.9099 45.3548 21.8711L42.5907 21.6441L41.5163 19.2662C41.323 18.8344 40.659 18.8323 40.463 19.2629L39.3737 21.6287L36.6083 21.8383C36.1044 21.874 35.8965 22.459 36.2791 22.769L38.3745 24.4686L37.737 26.9795C37.6211 27.437 38.1523 27.8007 38.5881 27.5572L40.9678 26.2336Z" fill="#0069AB"/>
<path d="M55.7259 26.8407L55.7455 20.5711L59.7946 20.5838L59.7916 21.5678L56.7917 21.5584L56.7869 23.104L59.2642 23.1118L59.2612 24.0958L56.7838 24.088L56.7782 25.86L59.7781 25.8694L59.775 26.8534L55.7259 26.8407ZM62.134 26.9914C61.7944 26.9904 61.5073 26.9256 61.2726 26.7972C61.0379 26.6658 60.8599 26.4925 60.7387 26.2774C60.6203 26.0622 60.5616 25.8255 60.5624 25.5671C60.5631 25.3407 60.6015 25.1377 60.6775 24.9579C60.7535 24.7753 60.8701 24.6189 61.0273 24.4888C61.1844 24.3558 61.388 24.2476 61.6379 24.1642C61.8267 24.1038 62.0475 24.0494 62.3002 24.0008C62.5557 23.9523 62.8316 23.9081 63.1278 23.8684C63.4269 23.8258 63.7391 23.7804 64.0643 23.732L63.6892 23.9442C63.6932 23.6191 63.6214 23.3794 63.4738 23.2251C63.3263 23.0708 63.0769 22.9931 62.7257 22.992C62.5138 22.9914 62.309 23.0401 62.1113 23.1381C61.9136 23.2362 61.7752 23.4056 61.6961 23.6462L60.7392 23.3428C60.8565 22.9455 61.0781 22.6269 61.404 22.387C61.7327 22.1472 62.1743 22.0281 62.7287 22.0298C63.1466 22.0311 63.5136 22.1005 63.8296 22.2379C64.1484 22.3753 64.3843 22.5996 64.5371 22.9106C64.6208 23.0763 64.6711 23.2463 64.6879 23.4205C64.7048 23.5918 64.7129 23.7791 64.7123 23.9822L64.7033 26.8689L63.7846 26.866L63.7878 25.8472L63.9396 26.0131C63.7267 26.3521 63.4777 26.6009 63.1928 26.7596C62.9107 26.9155 62.5578 26.9928 62.134 26.9914ZM62.3457 26.1561C62.5837 26.1569 62.787 26.1154 62.9556 26.0318C63.1242 25.9481 63.258 25.8455 63.3571 25.7239C63.4591 25.6023 63.5277 25.4879 63.5628 25.3806C63.6184 25.2473 63.6494 25.095 63.6557 24.9237C63.6649 24.7496 63.6697 24.6088 63.6701 24.5014L63.992 24.5982C63.6754 24.6466 63.4039 24.6893 63.1774 24.7263C62.9509 24.7633 62.7563 24.799 62.5936 24.8333C62.431 24.8647 62.2872 24.9006 62.1622 24.9408C62.0402 24.984 61.937 25.0345 61.8526 25.0922C61.7683 25.15 61.7028 25.2166 61.6561 25.2919C61.6123 25.3672 61.5903 25.4557 61.5899 25.5573C61.5896 25.6734 61.6183 25.7765 61.6761 25.8667C61.7338 25.9539 61.8178 26.0239 61.9279 26.0765C62.041 26.1291 62.1802 26.1556 62.3457 26.1561ZM67.6519 27.0087C67.0714 27.0069 66.6001 26.8748 66.2381 26.6125C65.8761 26.3501 65.6567 25.9822 65.5798 25.5088L66.6514 25.3468C66.7058 25.5791 66.8271 25.7624 67.0154 25.8965C67.2036 26.0306 67.4414 26.0981 67.7288 26.099C67.9813 26.0998 68.1759 26.0511 68.3127 25.9528C68.4523 25.8516 68.5224 25.714 68.523 25.5398C68.5233 25.4324 68.4974 25.3467 68.4454 25.2827C68.3963 25.2158 68.2862 25.1516 68.1151 25.0901C67.944 25.0286 67.6816 24.9509 67.3278 24.8569C66.9333 24.7511 66.6202 24.6384 66.3884 24.5187C66.1566 24.396 65.9901 24.2518 65.889 24.0861C65.788 23.9203 65.7378 23.7199 65.7385 23.4848C65.7394 23.1916 65.8172 22.9364 65.9717 22.7192C66.1262 22.502 66.3415 22.3358 66.6176 22.2205C66.8938 22.1024 67.219 22.0439 67.5935 22.0451C67.9592 22.0462 68.2827 22.1038 68.5639 22.2179C68.848 22.332 69.0768 22.4938 69.2503 22.7034C69.4238 22.9129 69.5304 23.1585 69.5701 23.4402L68.4985 23.6284C68.473 23.428 68.382 23.2695 68.2257 23.1529C68.0722 23.0364 67.8663 22.9704 67.608 22.9551C67.3614 22.9398 67.1624 22.9769 67.0112 23.0664C66.86 23.153 66.7841 23.2761 66.7836 23.4358C66.7833 23.5258 66.8136 23.6028 66.8743 23.6668C66.9351 23.7309 67.0568 23.7951 67.2395 23.8595C67.425 23.924 67.7005 24.0032 68.066 24.0973C68.4401 24.1942 68.7387 24.3054 68.9618 24.431C69.1879 24.5536 69.3499 24.7007 69.4481 24.8722C69.5491 25.0438 69.5993 25.2515 69.5985 25.4953C69.597 25.9684 69.4232 26.3394 69.0769 26.6083C68.7336 26.8772 68.2586 27.0106 67.6519 27.0087ZM70.9894 28.9785L71.9028 26.4952L71.918 27.2267L69.8831 22.1829L70.9759 22.1863L72.4184 25.9178L72.1398 25.9169L73.5665 22.1944L74.6158 22.1977L71.9734 28.9816L70.9894 28.9785ZM76.5582 26.906L78.5545 20.6426L80.0915 20.6474L82.0485 26.9233L80.9687 26.9199L79.1925 21.289L79.4277 21.2897L77.638 26.9094L76.5582 26.906ZM77.664 25.5511L77.6671 24.5715L80.9586 24.5818L80.9556 25.5614L77.664 25.5511ZM85.0949 27.0634C84.6363 27.062 84.252 26.9519 83.9422 26.7333C83.6323 26.5146 83.3995 26.2178 83.244 25.8429C83.0884 25.465 83.0114 25.0425 83.0128 24.5751C83.0143 24.102 83.094 23.6785 83.2519 23.3045C83.4098 22.9306 83.6401 22.6367 83.9426 22.4229C84.2481 22.2061 84.6243 22.0985 85.0713 22.0999C85.5154 22.1012 85.8996 22.2113 86.224 22.43C86.5514 22.6458 86.8044 22.9412 86.9832 23.3162C87.162 23.6883 87.2507 24.1124 87.2492 24.5884C87.2477 25.0586 87.1578 25.4807 86.9796 25.8546C86.8014 26.2285 86.5508 26.5237 86.2279 26.7404C85.9051 26.9571 85.5274 27.0648 85.0949 27.0634ZM82.8204 29.0156L82.8417 22.2235L83.7691 22.2264L83.7587 25.5266L83.8893 25.5271L83.8784 29.0189L82.8204 29.0156ZM84.9368 26.1225C85.2096 26.1233 85.4348 26.0558 85.6123 25.92C85.7897 25.7841 85.9209 25.6002 86.0058 25.3682C86.0937 25.1334 86.138 24.8723 86.1389 24.5849C86.1398 24.3005 86.0971 24.042 86.0107 23.8095C85.9244 23.5742 85.79 23.388 85.6076 23.251C85.4251 23.1111 85.1932 23.0407 84.9116 23.0398C84.6446 23.039 84.4267 23.1036 84.2579 23.2337C84.0891 23.3609 83.9638 23.5404 83.8818 23.7724C83.8027 24.0015 83.7627 24.2698 83.7617 24.5775C83.7607 24.8823 83.7991 25.1509 83.8767 25.3833C83.9573 25.6158 84.083 25.7976 84.2538 25.9288C84.4276 26.057 84.6552 26.1216 84.9368 26.1225ZM90.4607 27.0802C90.0021 27.0788 89.6179 26.9687 89.308 26.7501C88.9981 26.5314 88.7654 26.2346 88.6098 25.8597C88.4542 25.4819 88.3772 25.0593 88.3787 24.592C88.3801 24.1188 88.4598 23.6953 88.6178 23.3214C88.7757 22.9474 89.0059 22.6535 89.3084 22.4397C89.6139 22.2229 89.9901 22.1153 90.4371 22.1167C90.8812 22.1181 91.2655 22.2281 91.5899 22.4468C91.9172 22.6627 92.1703 22.9581 92.349 23.3331C92.5278 23.7052 92.6165 24.1292 92.615 24.6052C92.6135 25.0755 92.5237 25.4975 92.3454 25.8714C92.1672 26.2453 91.9167 26.5406 91.5938 26.7572C91.2709 26.9739 90.8932 27.0816 90.4607 27.0802ZM88.1862 29.0324L88.2075 22.2403L89.1349 22.2432L89.1246 25.5435L89.2552 25.5439L89.2442 29.0357L88.1862 29.0324ZM90.3026 26.1393C90.5754 26.1401 90.8006 26.0726 90.9781 25.9368C91.1556 25.8009 91.2868 25.617 91.3717 25.3851C91.4595 25.1502 91.5039 24.8891 91.5048 24.6018C91.5056 24.3173 91.4629 24.0588 91.3766 23.8264C91.2902 23.591 91.1558 23.4048 90.9734 23.2678C90.791 23.1279 90.559 23.0575 90.2774 23.0566C90.0104 23.0558 89.7925 23.1204 89.6237 23.2505C89.455 23.3777 89.3296 23.5573 89.2476 23.7892C89.1685 24.0183 89.1285 24.2866 89.1275 24.5943C89.1266 24.8991 89.1649 25.1677 89.2426 25.4002C89.3231 25.6326 89.4488 25.8144 89.6196 25.9456C89.7934 26.0738 90.0211 26.1384 90.3026 26.1393ZM95.6437 27.0965C95.1735 27.095 94.7631 26.9878 94.4126 26.7748C94.062 26.5618 93.7901 26.2692 93.5968 25.8971C93.4064 25.5221 93.3119 25.0922 93.3135 24.6074C93.315 24.114 93.415 23.6818 93.6136 23.3109C93.8121 22.94 94.0873 22.6506 94.4392 22.4427C94.7911 22.2348 95.1978 22.1316 95.6593 22.133C96.1324 22.1345 96.5442 22.2418 96.8948 22.4548C97.2453 22.6677 97.5173 22.9618 97.7106 23.3368C97.9039 23.709 97.9998 24.1374 97.9982 24.6221C97.9967 25.1098 97.8967 25.5405 97.6981 25.9143C97.5025 26.2852 97.2287 26.5761 96.8769 26.7869C96.525 26.9948 96.1139 27.098 95.6437 27.0965ZM95.6468 26.1125C96.0648 26.1138 96.3758 25.9755 96.5798 25.6975C96.7839 25.4194 96.8866 25.0598 96.888 24.6186C96.8894 24.1629 96.7875 23.7998 96.5823 23.5292C96.3771 23.2557 96.0684 23.1183 95.6562 23.117C95.3746 23.1161 95.1422 23.1793 94.959 23.3064C94.7786 23.4307 94.6445 23.6059 94.5568 23.832C94.469 24.0552 94.4246 24.3149 94.4237 24.6109C94.4223 25.0666 94.5242 25.4312 94.7294 25.7047C94.9375 25.9753 95.2433 26.1112 95.6468 26.1125ZM99.0542 21.5603L99.0572 20.5981L100.107 20.6013L100.104 21.5636L99.0542 21.5603ZM99.0372 26.9765L99.052 22.2743L100.101 22.2776L100.087 26.9798L99.0372 26.9765ZM104.643 26.9941L104.65 24.7301C104.651 24.582 104.641 24.418 104.621 24.238C104.601 24.0579 104.554 23.8851 104.479 23.7194C104.407 23.5508 104.297 23.4126 104.15 23.3047C104.005 23.1969 103.808 23.1426 103.558 23.1418C103.424 23.1414 103.292 23.1627 103.162 23.2059C103.031 23.249 102.912 23.3241 102.804 23.4311C102.699 23.5353 102.614 23.6802 102.55 23.8657C102.486 24.0484 102.453 24.2834 102.452 24.5708L101.83 24.3032C101.831 23.9027 101.909 23.5401 102.064 23.2155C102.222 22.8909 102.452 22.6333 102.755 22.4427C103.057 22.2491 103.429 22.1531 103.87 22.1544C104.219 22.1555 104.506 22.2145 104.732 22.3313C104.958 22.4481 105.137 22.5967 105.27 22.7771C105.403 22.9575 105.501 23.1493 105.564 23.3527C105.628 23.5561 105.668 23.7493 105.685 23.9322C105.704 24.1122 105.714 24.2588 105.714 24.372L105.705 26.9974L104.643 26.9941ZM101.382 26.9839L101.397 22.2817L102.333 22.2846L102.328 23.7431L102.455 23.7435L102.444 26.9872L101.382 26.9839ZM109.598 27.0096C109.287 27.0667 108.982 27.0904 108.683 27.0808C108.387 27.074 108.122 27.0195 107.887 26.9172C107.652 26.8119 107.474 26.6474 107.353 26.4235C107.246 26.22 107.19 26.0123 107.185 25.8004C107.18 25.5885 107.178 25.349 107.179 25.0819L107.191 20.9936L108.236 20.9969L108.224 25.0243C108.223 25.2129 108.224 25.3784 108.226 25.5206C108.232 25.6629 108.262 25.7791 108.317 25.8692C108.421 26.0437 108.587 26.1415 108.817 26.1625C109.046 26.1835 109.307 26.1727 109.6 26.1301L109.598 27.0096ZM106.331 23.12L106.334 22.2971L109.612 22.3074L109.61 23.1303L106.331 23.12ZM116.256 27.0305L116.265 24.1743C116.266 23.8521 116.187 23.6008 116.028 23.4204C115.869 23.237 115.653 23.1449 115.38 23.144C115.211 23.1435 115.06 23.1822 114.927 23.2602C114.793 23.3352 114.686 23.4481 114.608 23.5988C114.529 23.7466 114.489 23.9235 114.488 24.1296L114.023 23.8538C114.022 23.5287 114.095 23.243 114.244 22.9968C114.396 22.7476 114.599 22.5538 114.855 22.4153C115.111 22.2768 115.396 22.208 115.709 22.209C116.229 22.2106 116.626 22.3686 116.901 22.6829C117.178 22.9944 117.316 23.4041 117.315 23.912L117.305 27.0338L116.256 27.0305ZM110.6 27.0128L110.615 22.3106L111.542 22.3135L111.538 23.772L111.668 23.7724L111.658 27.0161L110.6 27.0128ZM113.434 27.0216L113.443 24.1785C113.444 23.8506 113.365 23.5949 113.206 23.4115C113.047 23.2281 112.83 23.136 112.554 23.1352C112.287 23.1343 112.072 23.2251 111.909 23.4074C111.749 23.5898 111.668 23.8276 111.667 24.1207L111.198 23.8058C111.199 23.501 111.275 23.2269 111.427 22.9836C111.579 22.7403 111.782 22.5493 112.038 22.4108C112.297 22.2694 112.586 22.1992 112.905 22.2002C113.256 22.2013 113.549 22.2777 113.784 22.4293C114.022 22.5781 114.198 22.7818 114.313 23.0405C114.432 23.2963 114.49 23.5853 114.489 23.9075L114.479 27.0249L113.434 27.0216ZM120.501 27.1744C120.025 27.1729 119.608 27.0686 119.248 26.8614C118.889 26.6541 118.609 26.3674 118.407 26.001C118.207 25.6346 118.109 25.2134 118.11 24.7374C118.112 24.2237 118.212 23.7784 118.41 23.4017C118.609 23.0221 118.884 22.7283 119.236 22.5204C119.588 22.3126 119.995 22.2093 120.456 22.2108C120.944 22.2123 121.357 22.3283 121.696 22.5586C122.038 22.7861 122.291 23.1076 122.455 23.5232C122.619 23.9388 122.68 24.4281 122.637 24.9911L121.597 24.9878L121.598 24.6047C121.597 24.0938 121.508 23.7205 121.332 23.4849C121.155 23.2492 120.877 23.1308 120.497 23.1296C120.067 23.1282 119.747 23.2608 119.538 23.5271C119.328 23.7906 119.222 24.1778 119.22 24.6887C119.219 25.1647 119.322 25.5336 119.53 25.7955C119.739 26.0574 120.043 26.189 120.444 26.1902C120.702 26.1911 120.924 26.1351 121.11 26.0225C121.299 25.907 121.445 25.7406 121.547 25.5232L122.582 25.8399C122.401 26.2631 122.121 26.5917 121.743 26.8256C121.368 27.0596 120.954 27.1758 120.501 27.1744ZM118.889 24.9793L118.891 24.1869L122.126 24.1971L122.124 24.9895L118.889 24.9793ZM126.727 27.0633L126.734 24.7993C126.735 24.6513 126.725 24.4872 126.705 24.3072C126.686 24.1272 126.638 23.9543 126.563 23.7886C126.491 23.6201 126.381 23.4818 126.234 23.374C126.089 23.2661 125.892 23.2118 125.642 23.211C125.509 23.2106 125.376 23.232 125.246 23.2751C125.115 23.3182 124.996 23.3933 124.888 23.5004C124.783 23.6045 124.698 23.7494 124.634 23.935C124.57 24.1176 124.537 24.3527 124.536 24.64L123.914 24.3725C123.916 23.9719 123.994 23.6093 124.148 23.2847C124.306 22.9601 124.536 22.7025 124.839 22.5119C125.141 22.3184 125.513 22.2223 125.954 22.2237C126.303 22.2248 126.59 22.2837 126.816 22.4005C127.042 22.5173 127.221 22.6659 127.354 22.8463C127.487 23.0267 127.585 23.2186 127.649 23.422C127.712 23.6253 127.752 23.8185 127.769 24.0014C127.788 24.1814 127.798 24.328 127.798 24.4412L127.79 27.0666L126.727 27.0633ZM123.466 27.0531L123.481 22.3509L124.417 22.3538L124.412 23.8124L124.539 23.8128L124.528 27.0564L123.466 27.0531ZM131.682 27.0788C131.371 27.1359 131.066 27.1596 130.767 27.15C130.471 27.1433 130.206 27.0887 129.971 26.9864C129.736 26.8812 129.558 26.7166 129.437 26.4927C129.33 26.2892 129.274 26.0815 129.269 25.8696C129.264 25.6577 129.262 25.4182 129.263 25.1512L129.275 21.0629L130.32 21.0661L130.308 25.0935C130.307 25.2822 130.308 25.4476 130.311 25.5899C130.316 25.7321 130.346 25.8483 130.401 25.9385C130.505 26.1129 130.671 26.2107 130.901 26.2317C131.13 26.2528 131.391 26.242 131.684 26.1994L131.682 27.0788ZM128.415 23.1892L128.418 22.3664L131.696 22.3766L131.694 23.1995L128.415 23.1892ZM134.436 27.0875L134.456 20.8179L136.942 20.8257C137.366 20.827 137.712 20.9137 137.982 21.0858C138.254 21.255 138.455 21.4719 138.585 21.7364C138.717 22.001 138.783 22.274 138.782 22.5556C138.781 22.901 138.698 23.1939 138.532 23.4343C138.368 23.6747 138.146 23.8366 137.864 23.9198L137.865 23.7022C138.259 23.7934 138.557 23.9815 138.76 24.2666C138.965 24.5517 139.067 24.8757 139.066 25.2385C139.065 25.61 138.992 25.9349 138.849 26.2131C138.706 26.4913 138.494 26.7083 138.212 26.8642C137.933 27.0201 137.587 27.0974 137.175 27.0961L134.436 27.0875ZM135.502 26.1025L137.047 26.1073C137.23 26.1079 137.394 26.0721 137.54 26C137.685 25.925 137.798 25.8209 137.88 25.6876C137.965 25.5514 138.007 25.3905 138.008 25.2047C138.008 25.0364 137.973 24.8853 137.9 24.7516C137.828 24.6178 137.723 24.5115 137.584 24.4327C137.445 24.351 137.278 24.3099 137.083 24.3093L135.507 24.3043L135.502 26.1025ZM135.51 23.3247L136.921 23.3291C137.072 23.3296 137.207 23.301 137.326 23.2433C137.445 23.1856 137.54 23.1003 137.61 22.9873C137.68 22.8743 137.715 22.7351 137.716 22.5697C137.716 22.352 137.647 22.1703 137.508 22.0248C137.37 21.8792 137.175 21.806 136.926 21.8052L135.515 21.8008L135.51 23.3247ZM142.006 27.2418C141.536 27.2404 141.125 27.1331 140.775 26.9201C140.424 26.7071 140.152 26.4146 139.959 26.0424C139.769 25.6674 139.674 25.2375 139.676 24.7528C139.677 24.2593 139.777 23.8272 139.976 23.4562C140.174 23.0853 140.449 22.7959 140.801 22.588C141.153 22.3802 141.56 22.2769 142.021 22.2784C142.495 22.2799 142.906 22.3871 143.257 22.6001C143.607 22.8131 143.879 23.1071 144.073 23.4821C144.266 23.8543 144.362 24.2827 144.36 24.7675C144.359 25.2551 144.259 25.6858 144.06 26.0596C143.865 26.4306 143.591 26.7214 143.239 26.9322C142.887 27.1401 142.476 27.2433 142.006 27.2418ZM142.009 26.2578C142.427 26.2592 142.738 26.1208 142.942 25.8428C143.146 25.5648 143.249 25.2052 143.25 24.764C143.252 24.3083 143.15 23.9451 142.944 23.6745C142.739 23.401 142.431 23.2637 142.018 23.2624C141.737 23.2615 141.504 23.3246 141.321 23.4518C141.141 23.576 141.007 23.7512 140.919 23.9773C140.831 24.2005 140.787 24.4602 140.786 24.7563C140.784 25.212 140.886 25.5766 141.092 25.8501C141.3 26.1206 141.606 26.2566 142.009 26.2578ZM147.389 27.2587C146.918 27.2572 146.508 27.15 146.158 26.937C145.807 26.724 145.535 26.4314 145.342 26.0593C145.151 25.6843 145.057 25.2544 145.058 24.7697C145.06 24.2762 145.16 23.844 145.359 23.4731C145.557 23.1022 145.832 22.8128 146.184 22.6049C146.536 22.397 146.943 22.2938 147.404 22.2953C147.877 22.2967 148.289 22.404 148.64 22.617C148.99 22.83 149.262 23.124 149.456 23.499C149.649 23.8712 149.745 24.2996 149.743 24.7843C149.742 25.272 149.642 25.7027 149.443 26.0765C149.247 26.4474 148.974 26.7383 148.622 26.9491C148.27 27.157 147.859 27.2602 147.389 27.2587ZM147.392 26.2747C147.81 26.276 148.121 26.1377 148.325 25.8597C148.529 25.5817 148.632 25.2221 148.633 24.7809C148.634 24.3251 148.533 23.962 148.327 23.6914C148.122 23.4179 147.813 23.2805 147.401 23.2792C147.12 23.2784 146.887 23.3415 146.704 23.4686C146.524 23.5929 146.39 23.7681 146.302 23.9942C146.214 24.2174 146.17 24.4771 146.169 24.7731C146.167 25.2288 146.269 25.5934 146.474 25.8669C146.683 26.1375 146.988 26.2735 147.392 26.2747ZM150.686 27.1384L150.715 20.8688L151.777 20.8722L151.765 24.7036L153.492 22.445L154.803 22.4491L152.971 24.7945L154.945 27.1518L153.556 27.1474L151.765 24.8778L151.758 27.1418L150.686 27.1384ZM155.485 21.7372L155.488 20.775L156.537 20.7782L156.534 21.7405L155.485 21.7372ZM155.468 27.1534L155.483 22.4512L156.532 22.4545L156.517 27.1567L155.468 27.1534ZM161.074 27.171L161.081 24.907C161.081 24.7589 161.072 24.5949 161.052 24.4149C161.032 24.2348 160.985 24.062 160.91 23.8963C160.838 23.7277 160.728 23.5895 160.58 23.4817C160.435 23.3738 160.238 23.3195 159.989 23.3187C159.855 23.3183 159.723 23.3396 159.592 23.3828C159.461 23.4259 159.342 23.501 159.234 23.608C159.13 23.7122 159.045 23.8571 158.98 24.0426C158.916 24.2253 158.883 24.4603 158.882 24.7477L158.261 24.4801C158.262 24.0796 158.34 23.717 158.495 23.3924C158.653 23.0678 158.883 22.8102 159.185 22.6196C159.488 22.426 159.86 22.33 160.301 22.3313C160.649 22.3324 160.936 22.3914 161.162 22.5082C161.388 22.625 161.568 22.7736 161.701 22.954C161.834 23.1344 161.932 23.3262 161.995 23.5296C162.058 23.733 162.098 23.9262 162.115 24.1091C162.135 24.2891 162.145 24.4357 162.144 24.5489L162.136 27.1743L161.074 27.171ZM157.813 27.1608L157.827 22.4586L158.763 22.4615L158.759 23.92L158.885 23.9204L158.875 27.1641L157.813 27.1608ZM165.242 29.4046C164.981 29.4037 164.73 29.3623 164.489 29.2803C164.251 29.1983 164.037 29.08 163.846 28.9256C163.655 28.7741 163.498 28.5907 163.377 28.3755L164.345 27.8996C164.435 28.0712 164.561 28.1978 164.723 28.2796C164.888 28.3643 165.064 28.4069 165.249 28.4075C165.467 28.4082 165.662 28.3696 165.833 28.2918C166.005 28.2169 166.137 28.1041 166.23 27.9534C166.327 27.8057 166.372 27.6201 166.367 27.3966L166.371 26.0599L166.502 26.0603L166.513 22.4858L167.432 22.4887L167.416 27.4173C167.416 27.5363 167.41 27.6495 167.398 27.7568C167.389 27.8671 167.372 27.9744 167.349 28.0789C167.278 28.3834 167.144 28.6326 166.946 28.8265C166.748 29.0232 166.502 29.169 166.209 29.2639C165.918 29.3588 165.596 29.4057 165.242 29.4046ZM165.157 27.3144C164.724 27.313 164.347 27.203 164.026 26.9843C163.704 26.7656 163.456 26.4688 163.28 26.0938C163.104 25.7188 163.017 25.2962 163.018 24.826C163.02 24.3499 163.11 23.9264 163.288 23.5554C163.469 23.1816 163.724 22.8878 164.053 22.674C164.381 22.4573 164.768 22.3497 165.212 22.3511C165.659 22.3525 166.033 22.4625 166.334 22.6811C166.638 22.8969 166.868 23.1922 167.023 23.5672C167.179 23.9421 167.256 24.3661 167.255 24.8392C167.253 25.3066 167.173 25.7286 167.016 26.1055C166.858 26.4794 166.623 26.7748 166.312 26.9915C166.001 27.2082 165.616 27.3158 165.157 27.3144ZM165.321 26.3745C165.603 26.3753 165.829 26.3122 166.001 26.185C166.175 26.055 166.302 25.8739 166.381 25.642C166.463 25.41 166.505 25.1417 166.506 24.8369C166.507 24.5292 166.467 24.2606 166.386 24.031C166.309 23.7986 166.186 23.6182 166.018 23.49C165.85 23.3588 165.633 23.2929 165.365 23.292C165.084 23.2911 164.852 23.3601 164.668 23.4988C164.485 23.6347 164.349 23.82 164.262 24.0548C164.174 24.2868 164.129 24.545 164.129 24.8294C164.128 25.1168 164.169 25.3782 164.252 25.6135C164.339 25.846 164.47 26.0307 164.647 26.1677C164.823 26.3047 165.048 26.3736 165.321 26.3745Z" fill="#0069AB"/>
</g>
<defs>
<filter id="filter0_d_2001_1077" x="0.666173" y="0.372049" width="191.445" height="54.9286" filterUnits="userSpaceOnUse" color-interpolation-filters="sRGB">
<feFlood flood-opacity="0" result="BackgroundImageFix"/>
<feColorMatrix in="SourceAlpha" type="matrix" values="0 0 0 0 0 0 0 0 0 0 0 0 0 0 0 0 0 0 127 0" result="hardAlpha"/>
<feOffset dx="-4.35391" dy="4.35391"/>
<feGaussianBlur stdDeviation="7.61935"/>
<feComposite in2="hardAlpha" operator="out"/>
<feColorMatrix type="matrix" values="0 0 0 0 0 0 0 0 0 0 0 0 0 0 0 0 0 0 0.06 0"/>
<feBlend mode="normal" in2="BackgroundImageFix" result="effect1_dropShadow_2001_1077"/>
<feBlend mode="normal" in="SourceGraphic" in2="effect1_dropShadow_2001_1077" result="shape"/>
</filter>
</defs>
</svg>
