<svg width="188" height="93" viewBox="0 0 188 93" fill="none" xmlns="http://www.w3.org/2000/svg">
<g filter="url(#filter0_d_2001_1050)">
<rect x="11.0999" y="27.3184" width="163.272" height="47.8931" rx="6.53087" transform="rotate(0.179612 11.0999 27.3184)" fill="url(#paint0_linear_2001_1050)" shape-rendering="crispEdges"/>
<rect x="11.6424" y="27.8643" width="162.183" height="46.8046" rx="5.98663" transform="rotate(0.179612 11.6424 27.8643)" stroke="url(#paint1_linear_2001_1050)" stroke-width="1.08848" shape-rendering="crispEdges"/>
<path d="M24.6985 50.6005L24.7157 45.1146L25.3938 45.1167L25.3786 49.9588L27.9235 49.9668L27.9214 50.6106L24.6985 50.6005ZM30.318 50.7324C29.9091 50.7311 29.5563 50.6373 29.2597 50.451C28.9657 50.2647 28.7392 50.0074 28.5802 49.6793C28.4213 49.3512 28.3424 48.975 28.3438 48.5509C28.3451 48.1191 28.4276 47.741 28.5911 47.4164C28.7547 47.0918 28.9853 46.8398 29.2831 46.6604C29.5808 46.4785 29.9303 46.3881 30.3316 46.3894C30.743 46.3907 31.097 46.4845 31.3936 46.6708C31.6902 46.8546 31.9167 47.1106 32.0731 47.4387C32.2321 47.7643 32.3109 48.1392 32.3096 48.5633C32.3083 48.9925 32.2271 49.3707 32.066 49.6978C31.905 50.0224 31.6756 50.277 31.3779 50.4614C31.0802 50.6434 30.7269 50.7337 30.318 50.7324ZM30.32 50.0886C30.7467 50.0899 31.0646 49.9487 31.2737 49.6649C31.4829 49.3811 31.5882 49.0131 31.5896 48.5611C31.591 48.0963 31.4868 47.7264 31.2769 47.4515C31.0669 47.174 30.7512 47.0346 30.3296 47.0332C30.0426 47.0323 29.8062 47.0964 29.6204 47.2253C29.4345 47.3543 29.2956 47.5329 29.2034 47.7612C29.1113 47.9895 29.0647 48.2535 29.0638 48.5531C29.0623 49.0154 29.1678 49.3865 29.3803 49.6666C29.5928 49.9466 29.906 50.0873 30.32 50.0886ZM33.1419 50.627L33.1548 46.5125L33.7606 46.5144L33.7574 47.5088L33.6588 47.3789C33.7075 47.2521 33.77 47.1355 33.8466 47.029C33.9256 46.9226 34.0135 46.8352 34.1103 46.767C34.2172 46.681 34.3381 46.6153 34.4728 46.57C34.6076 46.5247 34.7448 46.4985 34.8845 46.4913C35.0242 46.4816 35.155 46.4909 35.2768 46.5192L35.2748 47.1554C35.1327 47.1169 34.9765 47.1062 34.8063 47.1235C34.6361 47.1407 34.4784 47.2024 34.3333 47.3087C34.201 47.4022 34.0978 47.5162 34.0237 47.6506C33.9521 47.7849 33.9022 47.9308 33.8737 48.0882C33.8453 48.243 33.8308 48.4017 33.8303 48.5643L33.8239 50.6291L33.1419 50.627ZM37.6924 50.7555C37.2886 50.7543 36.9359 50.6643 36.6342 50.4855C36.3351 50.3043 36.1022 50.0534 35.9356 49.7328C35.769 49.4098 35.6863 49.0336 35.6877 48.6044C35.6891 48.1548 35.7728 47.7665 35.939 47.4394C36.1051 47.1098 36.3357 46.8565 36.6309 46.6796C36.9286 46.5002 37.2768 46.4112 37.6756 46.4124C38.0896 46.4137 38.441 46.5101 38.73 46.7015C39.0214 46.8929 39.239 47.1653 39.3827 47.5188C39.5289 47.8723 39.591 48.2928 39.5692 48.7804L38.8835 48.7782L38.8842 48.5344C38.8782 48.029 38.7765 47.6515 38.5792 47.402C38.3819 47.1499 38.0877 47.0233 37.6965 47.022C37.2775 47.0207 36.9583 47.1543 36.739 47.4229C36.5198 47.6914 36.4094 48.0771 36.4078 48.58C36.4063 49.0651 36.5143 49.4413 36.7319 49.7087C36.9495 49.976 37.2602 50.1103 37.664 50.1116C37.9357 50.1125 38.1721 50.051 38.3732 49.9271C38.5742 49.8033 38.7322 49.6248 38.8472 49.3915L39.498 49.6183C39.3369 49.981 39.0947 50.2621 38.7715 50.4618C38.4509 50.6589 38.0912 50.7568 37.6924 50.7555ZM36.1786 48.7697L36.1803 48.225L39.2204 48.2345L39.2187 48.7793L36.1786 48.7697ZM45.2182 50.6648L45.2302 48.0324C45.2312 47.7251 45.1494 47.4848 44.9849 47.3116C44.8229 47.1358 44.6111 47.0475 44.3495 47.0467C44.1971 47.0462 44.0522 47.0813 43.9149 47.152C43.7775 47.2202 43.6654 47.329 43.5786 47.4786C43.4918 47.6256 43.448 47.8147 43.4473 48.0458L43.0896 47.8999C43.0854 47.6078 43.1459 47.3528 43.2711 47.1348C43.3987 46.9142 43.572 46.7433 43.7908 46.6221C44.0096 46.5009 44.2561 46.4407 44.5304 46.4415C44.9597 46.4429 45.297 46.5747 45.5426 46.8371C45.7881 47.0969 45.9102 47.4465 45.9088 47.8859L45.8963 50.667L45.2182 50.6648ZM40.2961 50.6494L40.309 46.535L40.9147 46.5369L40.9113 47.6379L40.9875 47.6381L40.978 50.6515L40.2961 50.6494ZM42.761 50.6571L42.7729 48.0513C42.7739 47.7364 42.6934 47.4898 42.5314 47.3115C42.3695 47.1307 42.1539 47.0398 41.8846 47.039C41.618 47.0381 41.4018 47.1289 41.2361 47.3112C41.0705 47.4936 40.9872 47.7359 40.9862 48.0381L40.6288 47.8236C40.6296 47.557 40.6939 47.3184 40.8215 47.108C40.9492 46.8976 41.1224 46.7331 41.3412 46.6144C41.56 46.4932 41.8078 46.433 42.0846 46.4339C42.3615 46.4347 42.6026 46.4939 42.8079 46.6114C43.0133 46.7289 43.1715 46.897 43.2826 47.1157C43.3936 47.332 43.4487 47.5899 43.4478 47.8896L43.4353 50.6592L42.761 50.6571ZM48.5091 45.833L48.5113 45.132L49.1894 45.1342L49.1872 45.8352L48.5091 45.833ZM48.494 50.6751L48.5068 46.5607L49.185 46.5628L49.1721 50.6772L48.494 50.6751ZM52.2044 50.801C51.8183 50.7998 51.4935 50.7036 51.23 50.5122C50.9665 50.3184 50.7666 50.0574 50.6305 49.7294C50.497 49.3988 50.4308 49.029 50.4321 48.6201C50.4334 48.2061 50.5019 47.8356 50.6375 47.5083C50.7757 47.1811 50.9771 46.924 51.2418 46.7369C51.5091 46.5498 51.8358 46.4568 52.2218 46.458C52.6028 46.4592 52.9301 46.5555 53.2038 46.7468C53.48 46.9356 53.6913 47.1941 53.8376 47.5222C53.9839 47.8503 54.0564 48.22 54.0551 48.6315C54.0538 49.0429 53.979 49.4122 53.8306 49.7394C53.6823 50.0666 53.4694 50.3262 53.192 50.5184C52.9171 50.708 52.5879 50.8022 52.2044 50.801ZM50.3056 52.5094L50.3242 46.5664L50.93 46.5683L50.9205 49.5969L50.9967 49.5972L50.9875 52.5116L50.3056 52.5094ZM52.1225 50.1798C52.3943 50.1806 52.6193 50.1128 52.7975 49.9762C52.9757 49.8396 53.1096 49.6546 53.1992 49.4212C53.2889 49.1853 53.3341 48.9213 53.335 48.6292C53.336 48.3397 53.2923 48.078 53.2042 47.844C53.1185 47.6101 52.9845 47.4243 52.8021 47.2865C52.6222 47.1488 52.3926 47.0795 52.1132 47.0787C51.8465 47.0778 51.6253 47.1432 51.4497 47.2747C51.274 47.4037 51.1427 47.5849 51.0556 47.8182C50.9685 48.0491 50.9245 48.3169 50.9235 48.6217C50.9226 48.9214 50.9637 49.1894 51.0467 49.4259C51.1324 49.6598 51.2638 49.8444 51.4412 49.9795C51.6186 50.1122 51.8457 50.1789 52.1225 50.1798ZM56.3782 50.8103C55.8881 50.8088 55.4858 50.7008 55.1716 50.4865C54.8599 50.2696 54.669 49.9681 54.5991 49.5818L55.2928 49.4735C55.348 49.6972 55.4757 49.8754 55.6759 50.0081C55.8762 50.1382 56.1249 50.2038 56.422 50.2047C56.7039 50.2056 56.9251 50.1479 57.0855 50.0315C57.2458 49.9152 57.3263 49.7567 57.327 49.5561C57.3273 49.4392 57.301 49.3452 57.2478 49.2739C57.1947 49.2001 57.0845 49.1312 56.917 49.0671C56.7522 49.0031 56.5022 48.9262 56.1673 48.8362C55.8044 48.7386 55.519 48.6373 55.311 48.5326C55.1031 48.4278 54.9549 48.3067 54.8664 48.1692C54.778 48.0318 54.7341 47.8653 54.7347 47.6698C54.7354 47.4285 54.8021 47.2179 54.9347 47.038C55.0674 46.8555 55.252 46.7152 55.4885 46.6168C55.7275 46.5185 56.0045 46.4699 56.3194 46.4709C56.6318 46.4718 56.9111 46.5223 57.1571 46.6221C57.4032 46.7219 57.6008 46.8635 57.7501 47.0468C57.9019 47.2276 57.9914 47.4387 58.0186 47.6801L57.3248 47.8036C57.2925 47.5825 57.1864 47.4082 57.0065 47.2807C56.8291 47.1531 56.5994 47.0851 56.3175 47.0766C56.0509 47.0656 55.8336 47.1119 55.6657 47.2155C55.5002 47.3191 55.4173 47.4598 55.4167 47.6376C55.4164 47.7367 55.4466 47.8218 55.5073 47.8931C55.5706 47.9645 55.686 48.0321 55.8534 48.0961C56.0233 48.1602 56.2695 48.2333 56.5918 48.3156C56.9547 48.4082 57.2401 48.5094 57.448 48.6193C57.6585 48.7266 57.8079 48.8541 57.8963 49.0016C57.9848 49.1467 58.0287 49.3259 58.028 49.5392C58.0268 49.9354 57.8797 50.2474 57.587 50.475C57.2942 50.7001 56.8913 50.8119 56.3782 50.8103ZM60.4262 50.8192C60.162 50.8183 59.9349 50.7757 59.7446 50.6913C59.557 50.6069 59.4011 50.4947 59.2771 50.3546C59.1531 50.2145 59.0558 50.0593 58.9852 49.8889C58.9146 49.7185 58.8644 49.5444 58.8345 49.3665C58.8071 49.1886 58.7936 49.0222 58.7941 48.8673L58.8013 46.5929L59.487 46.5951L59.4805 48.6561C59.4799 48.8491 59.4971 49.0359 59.5321 49.2163C59.5671 49.3967 59.6263 49.5595 59.7096 49.7045C59.7955 49.8495 59.9095 49.9642 60.0514 50.0484C60.1959 50.1327 60.3761 50.1752 60.592 50.1759C60.7622 50.1764 60.9172 50.1477 61.0571 50.0897C61.1969 50.0317 61.3166 49.9457 61.416 49.8318C61.5154 49.7152 61.5921 49.5682 61.6459 49.3906C61.6998 49.2129 61.7272 49.006 61.7279 48.7698L62.1732 48.9084C62.172 49.3046 62.0985 49.646 61.9528 49.9325C61.8097 50.219 61.6071 50.4394 61.345 50.5935C61.0855 50.745 60.7792 50.8203 60.4262 50.8192ZM61.798 50.7168L61.8014 49.6158L61.7252 49.6156L61.7347 46.6021L62.4166 46.6043L62.4037 50.7187L61.798 50.7168ZM68.3886 50.7375L68.4007 48.105C68.4017 47.7977 68.3199 47.5574 68.1553 47.3842C67.9933 47.2084 67.7815 47.1202 67.5199 47.1193C67.3676 47.1189 67.2227 47.154 67.0853 47.2247C66.9479 47.2928 66.8358 47.4017 66.749 47.5512C66.6622 47.6983 66.6184 47.8873 66.6177 48.1185L66.2601 47.9726C66.2559 47.6805 66.3164 47.4254 66.4415 47.2074C66.5692 46.9868 66.7424 46.8159 66.9612 46.6947C67.18 46.5735 67.4266 46.5133 67.7009 46.5142C68.1301 46.5155 68.4675 46.6474 68.713 46.9097C68.9586 47.1696 69.0807 47.5192 69.0793 47.9586L69.0668 50.7396L68.3886 50.7375ZM63.4666 50.722L63.4795 46.6076L64.0852 46.6095L64.0817 47.7105L64.1579 47.7107L64.1485 50.7242L63.4666 50.722ZM65.9314 50.7298L65.9434 48.124C65.9444 47.809 65.8639 47.5624 65.7019 47.3841C65.5399 47.2033 65.3243 47.1125 65.0551 47.1116C64.7884 47.1108 64.5722 47.2015 64.4066 47.3839C64.2409 47.5662 64.1576 47.8085 64.1567 48.1107L63.7992 47.8963C63.8001 47.6296 63.8643 47.3911 63.992 47.1807C64.1196 46.9703 64.2928 46.8057 64.5116 46.687C64.7304 46.5658 64.9783 46.5056 65.2551 46.5065C65.5319 46.5074 65.773 46.5665 65.9784 46.684C66.1837 46.8015 66.3419 46.9696 66.453 47.1884C66.5641 47.4046 66.6191 47.6626 66.6182 47.9623L66.6057 50.7319L65.9314 50.7298ZM73.2031 50.8668C72.8196 50.8656 72.491 50.7694 72.2173 50.578C71.9437 50.3841 71.7324 50.1232 71.5836 49.7951C71.4373 49.467 71.3648 49.0972 71.3661 48.6858C71.3674 48.2743 71.4422 47.905 71.5905 47.5778C71.7414 47.2507 71.9543 46.9936 72.2292 46.8065C72.5041 46.6168 72.832 46.5226 73.213 46.5238C73.6015 46.525 73.9276 46.62 74.1911 46.8088C74.4547 46.9976 74.6533 47.256 74.7868 47.584C74.923 47.9121 74.9904 48.2831 74.9891 48.6971C74.9878 49.106 74.9181 49.4753 74.7799 49.8051C74.6442 50.1323 74.4441 50.392 74.1793 50.5842C73.9146 50.7738 73.5892 50.8681 73.2031 50.8668ZM73.2889 50.2461C73.5657 50.247 73.7933 50.1817 73.9715 50.0502C74.1497 49.9161 74.281 49.7324 74.3656 49.499C74.4527 49.2631 74.4967 48.9953 74.4976 48.6956C74.4986 48.3908 74.4562 48.1227 74.3706 47.8913C74.2875 47.6574 74.1586 47.4754 73.9837 47.3453C73.8089 47.2127 73.5869 47.146 73.3177 47.1451C73.0383 47.1443 72.807 47.2121 72.6237 47.3487C72.4429 47.4853 72.3077 47.6702 72.2181 47.9036C72.131 48.137 72.087 48.3985 72.0861 48.688C72.0852 48.9801 72.1288 49.2444 72.217 49.4808C72.3051 49.7148 72.4379 49.9006 72.6152 50.0383C72.7951 50.176 73.0197 50.2453 73.2889 50.2461ZM74.4912 50.7566L74.5007 47.7279L74.4245 47.7277L74.4322 45.2705L75.1141 45.2726L75.0969 50.7585L74.4912 50.7566ZM77.9163 50.8816C77.5074 50.8803 77.1547 50.7865 76.8581 50.6002C76.5641 50.4139 76.3376 50.1566 76.1786 49.8285C76.0196 49.5004 75.9408 49.1242 75.9421 48.7001C75.9435 48.2683 76.026 47.8902 76.1895 47.5656C76.3531 47.241 76.5837 46.989 76.8814 46.8096C77.1792 46.6277 77.5287 46.5374 77.93 46.5386C78.3414 46.5399 78.6954 46.6337 78.992 46.8201C79.2886 47.0038 79.5151 47.2598 79.6715 47.5879C79.8305 47.9135 79.9093 48.2884 79.908 48.7125C79.9067 49.1418 79.8255 49.5199 79.6644 49.8471C79.5034 50.1716 79.274 50.4262 78.9763 50.6106C78.6786 50.7926 78.3253 50.8829 77.9163 50.8816ZM77.9184 50.2378C78.345 50.2391 78.663 50.0979 78.8721 49.8141C79.0813 49.5303 79.1866 49.1624 79.188 48.7103C79.1894 48.2455 79.0852 47.8756 78.8752 47.6007C78.6653 47.3232 78.3495 47.1838 77.9279 47.1824C77.641 47.1815 77.4045 47.2456 77.2187 47.3745C77.0329 47.5035 76.894 47.6821 76.8018 47.9104C76.7097 48.1387 76.6631 48.4027 76.6622 48.7024C76.6607 49.1646 76.7662 49.5357 76.9787 49.8158C77.1912 50.0958 77.5044 50.2365 77.9184 50.2378ZM80.8165 50.7764L80.8341 45.1762L81.5122 45.1784L81.4946 50.7786L80.8165 50.7764ZM84.3898 50.9019C83.9809 50.9006 83.6281 50.8068 83.3316 50.6205C83.0375 50.4342 82.811 50.1769 82.6521 49.8488C82.4931 49.5207 82.4143 49.1445 82.4156 48.7204C82.4169 48.2886 82.4994 47.9105 82.663 47.5859C82.8265 47.2613 83.0572 47.0093 83.3549 46.8299C83.6526 46.648 84.0021 46.5577 84.4034 46.5589C84.8148 46.5602 85.1689 46.654 85.4654 46.8403C85.762 47.0241 85.9885 47.2801 86.145 47.6082C86.3039 47.9338 86.3828 48.3087 86.3814 48.7328C86.3801 49.162 86.2989 49.5402 86.1379 49.8674C85.9768 50.1919 85.7475 50.4465 85.4497 50.6309C85.152 50.8129 84.7987 50.9032 84.3898 50.9019ZM84.3918 50.2581C84.8185 50.2594 85.1364 50.1182 85.3456 49.8344C85.5547 49.5506 85.66 49.1826 85.6614 48.7306C85.6629 48.2658 85.5586 47.8959 85.3487 47.621C85.1388 47.3435 84.823 47.2041 84.4014 47.2027C84.1144 47.2018 83.878 47.2659 83.6922 47.3948C83.5064 47.5238 83.3674 47.7024 83.2752 47.9307C83.1831 48.159 83.1365 48.423 83.1356 48.7227C83.1342 49.1849 83.2397 49.556 83.4521 49.8361C83.6646 50.1161 83.9778 50.2568 84.3918 50.2581ZM87.2138 50.7965L87.2267 46.682L87.8324 46.6839L87.8293 47.6783L87.7306 47.5484C87.7793 47.4216 87.8419 47.305 87.9184 47.1985C87.9975 47.0921 88.0854 47.0048 88.1821 46.9365C88.289 46.8505 88.4099 46.7848 88.5446 46.7395C88.6794 46.6942 88.8166 46.668 88.9563 46.6608C89.096 46.6511 89.2268 46.6604 89.3486 46.6887L89.3466 47.3249C89.2045 47.2864 89.0484 47.2757 88.8781 47.293C88.7079 47.3102 88.5503 47.3719 88.4052 47.4782C88.2728 47.5717 88.1696 47.6857 88.0955 47.8201C88.024 47.9544 87.974 48.1003 87.9456 48.2577C87.9171 48.4125 87.9027 48.5712 87.9022 48.7338L87.8957 50.7986L87.2138 50.7965ZM93.1355 50.9255C92.6453 50.924 92.2431 50.8161 91.9288 50.6017C91.6171 50.3849 91.4263 50.0833 91.3564 49.697L92.0501 49.5887C92.1053 49.8124 92.233 49.9906 92.4332 50.1233C92.6334 50.2534 92.8821 50.319 93.1793 50.3199C93.4612 50.3208 93.6823 50.2631 93.8427 50.1468C94.0031 50.0304 94.0836 49.8719 94.0842 49.6713C94.0846 49.5545 94.0582 49.4604 94.0051 49.3891C93.952 49.3153 93.8417 49.2464 93.6743 49.1824C93.5094 49.1184 93.2595 49.0414 92.9245 48.9514C92.5616 48.8538 92.2762 48.7526 92.0683 48.6478C91.8603 48.543 91.7121 48.4219 91.6237 48.2845C91.5352 48.1471 91.4913 47.9806 91.4919 47.785C91.4927 47.5437 91.5593 47.3331 91.692 47.1532C91.8246 46.9708 92.0092 46.8304 92.2457 46.7321C92.4848 46.6338 92.7617 46.5851 93.0767 46.5861C93.3891 46.5871 93.6683 46.6375 93.9143 46.7373C94.1604 46.8371 94.358 46.9787 94.5073 47.162C94.6591 47.3428 94.7486 47.5539 94.7758 47.7953L94.0821 47.9188C94.0497 47.6978 93.9436 47.5235 93.7637 47.3959C93.5863 47.2684 93.3567 47.2003 93.0748 47.1918C92.8081 47.1808 92.5908 47.2271 92.4229 47.3307C92.2575 47.4344 92.1745 47.5751 92.1739 47.7528C92.1736 47.8519 92.2038 47.9371 92.2646 48.0084C92.3278 48.0797 92.4432 48.1474 92.6106 48.2114C92.7806 48.2754 93.0267 48.3486 93.349 48.4308C93.7119 48.5234 93.9973 48.6246 94.2052 48.7345C94.4157 48.8418 94.5651 48.9693 94.6536 49.1169C94.742 49.2619 94.7859 49.4411 94.7852 49.6544C94.784 50.0507 94.637 50.3626 94.3442 50.5903C94.0514 50.8154 93.6485 50.9271 93.1355 50.9255ZM95.7132 45.981L95.7154 45.28L96.3935 45.2822L96.3913 45.9831L95.7132 45.981ZM95.698 50.8231L95.7109 46.7086L96.389 46.7108L96.3761 50.8252L95.698 50.8231ZM99.8164 50.836C99.5724 50.8835 99.3311 50.9018 99.0924 50.8909C98.8562 50.8825 98.6456 50.8349 98.4604 50.7479C98.2753 50.6584 98.1348 50.5209 98.0388 50.3352C97.9581 50.1724 97.9141 50.0084 97.907 49.8433C97.9025 49.6756 97.9005 49.4864 97.9012 49.2756L97.9128 45.5726L98.5909 45.5748L98.5794 49.2473C98.5789 49.4149 98.5797 49.5584 98.5819 49.6778C98.5866 49.7972 98.6129 49.9001 98.6609 49.9866C98.7518 50.1494 98.8963 50.2451 99.0943 50.2737C99.2949 50.3023 99.5362 50.2954 99.8182 50.2531L99.8164 50.836ZM97.0732 47.2729L97.0749 46.7129L99.8293 46.7216L99.8275 47.2816L97.0732 47.2729ZM103.346 50.9613C103.039 50.9604 102.781 50.9037 102.573 50.7913C102.368 50.6764 102.212 50.526 102.106 50.3403C102.003 50.1546 101.951 49.9512 101.952 49.7303C101.953 49.5144 101.994 49.3278 102.076 49.1706C102.16 49.0109 102.277 48.8792 102.427 48.7755C102.578 48.6693 102.757 48.5861 102.965 48.5258C103.161 48.473 103.38 48.428 103.621 48.3907C103.865 48.3508 104.111 48.3147 104.36 48.2825C104.609 48.2503 104.842 48.2192 105.058 48.1894L104.814 48.3296C104.822 47.9639 104.75 47.6932 104.595 47.5175C104.443 47.3418 104.18 47.2533 103.804 47.2521C103.555 47.2514 103.336 47.3078 103.148 47.4215C102.962 47.5327 102.831 47.7151 102.754 47.9689L102.111 47.7726C102.211 47.4122 102.403 47.1296 102.688 46.9248C102.974 46.72 103.348 46.6183 103.813 46.6198C104.187 46.6209 104.506 46.6892 104.773 46.8247C105.041 46.9576 105.234 47.1588 105.35 47.4284C105.408 47.5556 105.444 47.6941 105.459 47.844C105.474 47.9914 105.481 48.1463 105.48 48.3089L105.472 50.8537L104.87 50.8518L104.874 49.8651L105.014 49.957C104.858 50.2892 104.64 50.54 104.36 50.7093C104.083 50.8786 103.745 50.9626 103.346 50.9613ZM103.451 50.394C103.695 50.3948 103.906 50.3523 104.084 50.2665C104.264 50.1782 104.409 50.063 104.519 49.9212C104.629 49.7767 104.7 49.6195 104.734 49.4494C104.772 49.3226 104.793 49.1817 104.796 49.0268C104.802 48.8693 104.805 48.7487 104.805 48.6649L105.041 48.7685C104.82 48.7982 104.603 48.8268 104.389 48.854C104.176 48.8813 103.974 48.9112 103.783 48.9436C103.593 48.9735 103.421 49.0097 103.268 49.0524C103.157 49.0876 103.051 49.133 102.952 49.1886C102.855 49.2442 102.776 49.3163 102.715 49.405C102.656 49.4912 102.627 49.599 102.626 49.7286C102.626 49.8403 102.654 49.9471 102.709 50.0488C102.767 50.1506 102.856 50.2334 102.975 50.2973C103.097 50.3612 103.255 50.3934 103.451 50.394ZM111.381 50.8722L111.393 48.2398C111.394 47.9325 111.312 47.6922 111.148 47.519C110.986 47.3432 110.774 47.2549 110.513 47.2541C110.36 47.2536 110.215 47.2887 110.078 47.3594C109.941 47.4276 109.828 47.5364 109.742 47.686C109.655 47.833 109.611 48.0221 109.61 48.2532L109.253 48.1073C109.248 47.8153 109.309 47.5602 109.434 47.3422C109.562 47.1216 109.735 46.9507 109.954 46.8295C110.173 46.7083 110.419 46.6481 110.693 46.6489C111.123 46.6503 111.46 46.7821 111.706 47.0445C111.951 47.3043 112.073 47.6539 112.072 48.0933L112.059 50.8744L111.381 50.8722ZM106.459 50.8568L106.472 46.7424L107.078 46.7443L107.074 47.8453L107.151 47.8455L107.141 50.8589L106.459 50.8568ZM108.924 50.8645L108.936 48.2587C108.937 47.9438 108.856 47.6972 108.694 47.5189C108.532 47.3381 108.317 47.2472 108.048 47.2464C107.781 47.2456 107.565 47.3363 107.399 47.5187C107.234 47.701 107.15 47.9433 107.149 48.2455L106.792 48.0311C106.793 47.7644 106.857 47.5258 106.985 47.3154C107.112 47.105 107.285 46.9405 107.504 46.8218C107.723 46.7006 107.971 46.6404 108.248 46.6413C108.524 46.6421 108.766 46.7013 108.971 46.8188C109.176 46.9363 109.335 47.1044 109.446 47.3232C109.557 47.5394 109.612 47.7973 109.611 48.097L109.598 50.8667L108.924 50.8645ZM114.801 50.9973C114.397 50.996 114.044 50.906 113.743 50.7273C113.443 50.546 113.211 50.2951 113.044 49.9746C112.877 49.6515 112.795 49.2753 112.796 48.8461C112.797 48.3966 112.881 48.0082 113.047 47.6811C113.213 47.3515 113.444 47.0982 113.739 46.9214C114.037 46.742 114.385 46.6529 114.784 46.6541C115.198 46.6554 115.549 46.7518 115.838 46.9432C116.13 47.1346 116.347 47.407 116.491 47.7605C116.637 48.114 116.699 48.5345 116.678 49.0221L115.992 49.0199L115.993 48.7761C115.987 48.2707 115.885 47.8932 115.688 47.6437C115.49 47.3916 115.196 47.265 114.805 47.2638C114.386 47.2624 114.067 47.3961 113.847 47.6646C113.628 47.9331 113.518 48.3188 113.516 48.8217C113.515 49.3068 113.623 49.683 113.84 49.9504C114.058 50.2177 114.369 50.3521 114.772 50.3533C115.044 50.3542 115.28 50.2927 115.482 50.1689C115.683 50.0451 115.841 49.8665 115.956 49.6332L116.606 49.86C116.445 50.2227 116.203 50.5038 115.88 50.7035C115.559 50.9006 115.2 50.9985 114.801 50.9973ZM113.287 49.0115L113.289 48.4667L116.329 48.4762L116.327 49.021L113.287 49.0115ZM119.817 50.8987C119.573 50.9462 119.332 50.9645 119.093 50.9536C118.857 50.9452 118.646 50.8976 118.461 50.8106C118.276 50.7211 118.135 50.5836 118.04 50.3979C117.959 50.2351 117.915 50.0711 117.908 49.906C117.903 49.7383 117.901 49.5491 117.902 49.3383L117.914 45.6353L118.592 45.6375L118.58 49.31C118.58 49.4776 118.58 49.6211 118.583 49.7405C118.587 49.8599 118.614 49.9628 118.662 50.0493C118.753 50.2121 118.897 50.3078 119.095 50.3364C119.296 50.365 119.537 50.3581 119.819 50.3158L119.817 50.8987ZM117.074 47.3356L117.076 46.7756L119.83 46.7843L119.828 47.3443L117.074 47.3356ZM120.574 51.7544L120.616 51.4384C120.723 51.4463 120.803 51.4262 120.857 51.3782C120.91 51.3301 120.945 51.2641 120.96 51.1804C120.976 51.0966 120.978 51.0039 120.969 50.9023L120.576 50.9011L120.579 50.0401L121.326 50.0424L121.323 51.0177C121.322 51.2844 121.255 51.4848 121.123 51.619C120.993 51.7532 120.81 51.7983 120.574 51.7544ZM124.375 50.913L124.392 45.3128L125.07 45.3149L125.053 50.9151L124.375 50.913ZM126.287 46.0768L126.289 45.3759L126.967 45.378L126.965 46.079L126.287 46.0768ZM126.272 50.9189L126.285 46.8045L126.963 46.8066L126.95 50.921L126.272 50.9189ZM129.752 52.8728C129.536 52.8721 129.325 52.8384 129.12 52.7717C128.914 52.7051 128.725 52.6041 128.553 52.469C128.383 52.3364 128.242 52.1683 128.128 51.9648L128.75 51.6391C128.851 51.8401 128.994 51.9865 129.179 52.0786C129.367 52.1706 129.56 52.2169 129.758 52.2175C130.019 52.2183 130.237 52.1708 130.41 52.0748C130.583 51.9814 130.71 51.8408 130.792 51.6531C130.876 51.4654 130.918 51.2319 130.916 50.9525L130.92 49.8287L131 49.8289L131.009 46.8193L131.611 46.8212L131.598 50.9623C131.598 51.074 131.593 51.182 131.586 51.2861C131.58 51.3902 131.567 51.493 131.546 51.5945C131.492 51.8864 131.386 52.1261 131.228 52.3136C131.07 52.5036 130.866 52.6439 130.617 52.7345C130.368 52.8277 130.08 52.8738 129.752 52.8728ZM129.708 51.044C129.325 51.0428 128.996 50.9465 128.722 50.7552C128.449 50.5613 128.237 50.3003 128.089 49.9722C127.942 49.6441 127.87 49.2743 127.871 48.8629C127.872 48.4514 127.947 48.0821 128.095 47.755C128.246 47.4278 128.459 47.1707 128.734 46.9836C129.009 46.794 129.337 46.6998 129.718 46.701C130.106 46.7022 130.433 46.7972 130.696 46.9859C130.96 47.1747 131.158 47.4331 131.292 47.7612C131.428 48.0892 131.495 48.4603 131.494 48.8742C131.493 49.2831 131.423 49.6525 131.285 49.9822C131.149 50.3094 130.949 50.5691 130.684 50.7613C130.42 50.951 130.094 51.0452 129.708 51.044ZM129.794 50.4233C130.071 50.4241 130.298 50.3588 130.476 50.2273C130.655 50.0933 130.786 49.9095 130.871 49.6761C130.958 49.4402 131.002 49.1724 131.003 48.8727C131.004 48.5679 130.961 48.2999 130.876 48.0685C130.792 47.8345 130.664 47.6525 130.489 47.5225C130.314 47.3898 130.092 47.3231 129.823 47.3223C129.543 47.3214 129.312 47.3892 129.129 47.5258C128.948 47.6624 128.813 47.8474 128.723 48.0808C128.636 48.3142 128.592 48.5756 128.591 48.8651C128.59 49.1572 128.634 49.4215 128.722 49.658C128.81 49.8919 128.943 50.0777 129.12 50.2154C129.3 50.3531 129.525 50.4224 129.794 50.4233ZM134.223 51.0505C133.959 51.0497 133.732 51.0071 133.542 50.9227C133.354 50.8383 133.198 50.726 133.074 50.5859C132.95 50.4459 132.853 50.2906 132.782 50.1202C132.712 49.9499 132.662 49.7757 132.632 49.5978C132.604 49.42 132.591 49.2536 132.591 49.0986L132.598 46.8243L133.284 46.8264L133.278 48.8875C133.277 49.0805 133.294 49.2672 133.329 49.4476C133.364 49.6281 133.423 49.7908 133.507 49.9358C133.593 50.0809 133.707 50.1955 133.849 50.2798C133.993 50.3641 134.173 50.4065 134.389 50.4072C134.559 50.4077 134.714 50.379 134.854 50.321C134.994 50.2631 135.114 50.1771 135.213 50.0631C135.313 49.9466 135.389 49.7995 135.443 49.6219C135.497 49.4443 135.524 49.2374 135.525 49.0012L135.97 49.1397C135.969 49.5359 135.896 49.8773 135.75 50.1638C135.607 50.4504 135.404 50.6707 135.142 50.8248C134.883 50.9764 134.576 51.0516 134.223 51.0505ZM135.595 50.9481L135.599 49.8472L135.522 49.8469L135.532 46.8335L136.214 46.8356L136.201 50.95L135.595 50.9481ZM137.344 50.9536L137.361 45.3534L138.039 45.3556L138.022 50.9558L137.344 50.9536ZM140.334 51.0773C140.027 51.0763 139.769 51.0196 139.561 50.9072C139.356 50.7923 139.2 50.642 139.094 50.4562C138.991 50.2705 138.939 50.0672 138.94 49.8462C138.941 49.6303 138.982 49.4438 139.064 49.2866C139.148 49.1268 139.265 48.9951 139.415 48.8915C139.565 48.7853 139.745 48.702 139.953 48.6417C140.149 48.589 140.368 48.544 140.609 48.5066C140.853 48.4667 141.099 48.4307 141.348 48.3984C141.597 48.3662 141.83 48.3352 142.046 48.3054L141.802 48.4456C141.81 48.0799 141.738 47.8092 141.583 47.6334C141.431 47.4577 141.167 47.3693 140.792 47.3681C140.543 47.3673 140.324 47.4238 140.136 47.5375C139.95 47.6486 139.819 47.8311 139.742 48.0848L139.098 47.8885C139.199 47.5282 139.391 47.2456 139.676 47.0408C139.961 46.8359 140.336 46.7342 140.801 46.7357C141.174 46.7369 141.494 46.8052 141.761 46.9406C142.029 47.0735 142.222 47.2748 142.338 47.5444C142.396 47.6715 142.432 47.8101 142.447 47.96C142.462 48.1073 142.469 48.2623 142.468 48.4248L142.46 50.9697L141.858 50.9678L141.861 49.9811L142.002 50.073C141.846 50.4052 141.628 50.6559 141.348 50.8252C141.071 50.9945 140.733 51.0785 140.334 51.0773ZM140.439 50.51C140.683 50.5107 140.894 50.4682 141.072 50.3824C141.252 50.2941 141.397 50.179 141.507 50.0371C141.617 49.8927 141.688 49.7354 141.722 49.5654C141.76 49.4385 141.781 49.2976 141.784 49.1427C141.79 48.9853 141.793 48.8646 141.793 48.7808L142.029 48.8844C141.808 48.9142 141.59 48.9427 141.377 48.97C141.164 48.9973 140.962 49.0271 140.771 49.0595C140.58 49.0894 140.409 49.1257 140.256 49.1684C140.144 49.2036 140.039 49.249 139.94 49.3045C139.843 49.3601 139.764 49.4323 139.703 49.521C139.644 49.6071 139.615 49.715 139.614 49.8445C139.614 49.9563 139.641 50.063 139.697 50.1648C139.755 50.2666 139.844 50.3494 139.963 50.4132C140.085 50.4771 140.243 50.5094 140.439 50.51ZM146.759 51.0974C146.355 51.0962 146.002 51.0062 145.7 50.8274C145.401 50.6462 145.168 50.3953 145.002 50.0747C144.835 49.7517 144.753 49.3755 144.754 48.9463C144.755 48.4968 144.839 48.1084 145.005 47.7813C145.171 47.4517 145.402 47.1984 145.697 47.0215C145.995 46.8422 146.343 46.7531 146.742 46.7543C147.156 46.7556 147.507 46.852 147.796 47.0434C148.088 47.2348 148.305 47.5072 148.449 47.8607C148.595 48.2142 148.657 48.6347 148.635 49.1223L147.95 49.1201L147.951 48.8763C147.944 48.3709 147.843 47.9934 147.645 47.7439C147.448 47.4918 147.154 47.3652 146.763 47.3639C146.344 47.3626 146.025 47.4962 145.805 47.7648C145.586 48.0333 145.476 48.419 145.474 48.9219C145.473 49.407 145.581 49.7832 145.798 50.0506C146.016 50.3179 146.326 50.4522 146.73 50.4535C147.002 50.4544 147.238 50.3929 147.439 50.2691C147.64 50.1452 147.799 49.9667 147.914 49.7334L148.564 49.9602C148.403 50.3229 148.161 50.604 147.838 50.8037C147.517 51.0008 147.157 51.0987 146.759 51.0974ZM145.245 49.1116L145.247 48.5669L148.287 48.5764L148.285 49.1212L145.245 49.1116ZM151.137 52.9398C150.921 52.9391 150.71 52.9055 150.504 52.8388C150.299 52.7721 150.11 52.6712 149.938 52.536C149.768 52.4034 149.626 52.2354 149.513 52.0318L150.135 51.7061C150.236 51.9071 150.379 52.0536 150.564 52.1456C150.751 52.2376 150.944 52.2839 151.142 52.2846C151.404 52.2854 151.621 52.2378 151.794 52.1418C151.967 52.0484 152.095 51.9078 152.177 51.7202C152.261 51.5325 152.302 51.2989 152.301 51.0196L152.304 49.8957L152.384 49.896L152.394 46.8863L152.996 46.8882L152.983 51.0293C152.982 51.1411 152.978 51.249 152.97 51.3531C152.965 51.4572 152.952 51.56 152.931 51.6616C152.877 51.9535 152.771 52.1932 152.613 52.3806C152.455 52.5706 152.251 52.7109 152.002 52.8016C151.753 52.8948 151.464 52.9408 151.137 52.9398ZM151.093 51.111C150.709 51.1098 150.381 51.0135 150.107 50.8222C149.833 50.6283 149.622 50.3673 149.473 50.0392C149.327 49.7111 149.254 49.3414 149.256 48.9299C149.257 48.5185 149.332 48.1492 149.48 47.822C149.631 47.4948 149.844 47.2377 150.119 47.0506C150.394 46.861 150.722 46.7668 151.103 46.768C151.491 46.7692 151.817 46.8642 152.081 47.053C152.344 47.2418 152.543 47.5002 152.676 47.8282C152.813 48.1563 152.88 48.5273 152.879 48.9413C152.877 49.3502 152.808 49.7195 152.67 50.0492C152.534 50.3765 152.334 50.6362 152.069 50.8284C151.804 51.018 151.479 51.1122 151.093 51.111ZM151.179 50.4903C151.455 50.4912 151.683 50.4259 151.861 50.2943C152.039 50.1603 152.171 49.9766 152.255 49.7432C152.342 49.5072 152.386 49.2394 152.387 48.9397C152.388 48.635 152.346 48.3669 152.26 48.1355C152.177 47.9016 152.048 47.7196 151.873 47.5895C151.699 47.4569 151.477 47.3902 151.207 47.3893C150.928 47.3884 150.697 47.4563 150.513 47.5929C150.333 47.7294 150.197 47.9144 150.108 48.1478C150.021 48.3812 149.977 48.6426 149.976 48.9322C149.975 49.2243 150.018 49.4885 150.107 49.725C150.195 49.9589 150.328 50.1448 150.505 50.2825C150.685 50.4202 150.909 50.4895 151.179 50.4903ZM155.799 51.1258C155.39 51.1245 155.037 51.0307 154.74 50.8443C154.446 50.658 154.22 50.4008 154.061 50.0727C153.902 49.7445 153.823 49.3684 153.824 48.9442C153.826 48.5125 153.908 48.1343 154.072 47.8097C154.235 47.4852 154.466 47.2332 154.764 47.0538C155.061 46.8718 155.411 46.7815 155.812 46.7828C156.224 46.7841 156.578 46.8779 156.874 47.0642C157.171 47.248 157.397 47.504 157.554 47.8321C157.713 48.1577 157.792 48.5325 157.79 48.9567C157.789 49.3859 157.708 49.7641 157.547 50.0912C157.386 50.4158 157.156 50.6703 156.858 50.8548C156.561 51.0367 156.207 51.1271 155.799 51.1258ZM155.801 50.4819C156.227 50.4833 156.545 50.342 156.754 50.0582C156.963 49.7744 157.069 49.4065 157.07 48.9544C157.072 48.4896 156.967 48.1198 156.757 47.8448C156.547 47.5673 156.232 47.4279 155.81 47.4266C155.523 47.4257 155.287 47.4897 155.101 47.6187C154.915 47.7476 154.776 47.9262 154.684 48.1545C154.592 48.3828 154.545 48.6468 154.544 48.9465C154.543 49.4087 154.648 49.7799 154.861 50.0599C155.073 50.34 155.387 50.4806 155.801 50.4819ZM158.596 51.0202L158.598 50.2736L159.345 50.2759L159.342 51.0226L158.596 51.0202ZM26.324 60.7199C25.9075 60.7186 25.5534 60.6248 25.262 60.4385C24.973 60.2497 24.7529 59.9912 24.6015 59.6631C24.4501 59.335 24.3726 58.9614 24.3688 58.5423C24.3752 58.1131 24.4564 57.7362 24.6124 57.4116C24.7709 57.0844 24.9964 56.8299 25.2891 56.6479C25.5817 56.466 25.9338 56.3757 26.3452 56.377C26.7795 56.3783 27.1525 56.4862 27.4642 56.7005C27.7785 56.9148 27.9884 57.2075 28.0939 57.5787L27.4228 57.7785C27.3372 57.5395 27.1968 57.3536 27.0016 57.221C26.809 57.0883 26.587 57.0216 26.3356 57.0208C26.0537 57.0199 25.8211 57.0852 25.6378 57.2167C25.4545 57.3456 25.3181 57.5255 25.2285 57.7564C25.1388 57.9847 25.0923 58.2474 25.0888 58.5445C25.0925 59.0017 25.1967 59.3716 25.4016 59.6541C25.6089 59.9342 25.9171 60.0748 26.326 60.0761C26.5952 60.077 26.8189 60.0167 26.9971 59.8953C27.1752 59.7715 27.3104 59.5928 27.4026 59.3595L28.0877 59.5407C27.9443 59.9237 27.7212 60.2164 27.4183 60.4186C27.1154 60.6208 26.7507 60.7213 26.324 60.7199ZM30.5024 60.733C30.0935 60.7318 29.7408 60.6379 29.4442 60.4516C29.1501 60.2653 28.9236 60.0081 28.7647 59.6799C28.6057 59.3518 28.5269 58.9757 28.5282 58.5515C28.5295 58.1198 28.612 57.7416 28.7756 57.417C28.9391 57.0924 29.1698 56.8404 29.4675 56.661C29.7652 56.4791 30.1147 56.3888 30.516 56.39C30.9275 56.3913 31.2815 56.4851 31.578 56.6715C31.8746 56.8553 32.1011 57.1112 32.2576 57.4393C32.4165 57.7649 32.4954 58.1398 32.494 58.5639C32.4927 58.9932 32.4115 59.3713 32.2505 59.6985C32.0895 60.0231 31.8601 60.2776 31.5623 60.4621C31.2646 60.644 30.9113 60.7343 30.5024 60.733ZM30.5044 60.0892C30.9311 60.0905 31.249 59.9493 31.4582 59.6655C31.6673 59.3817 31.7726 59.0138 31.774 58.5617C31.7755 58.0969 31.6712 57.727 31.4613 57.4521C31.2514 57.1746 30.9356 57.0352 30.514 57.0339C30.227 57.033 29.9906 57.097 29.8048 57.2259C29.619 57.3549 29.48 57.5335 29.3878 57.7618C29.2957 57.9901 29.2492 58.2541 29.2482 58.5538C29.2468 59.016 29.3523 59.3872 29.5647 59.6672C29.7772 59.9472 30.0904 60.0879 30.5044 60.0892ZM36.256 60.6368L36.2624 58.5758C36.2631 58.3802 36.2459 58.1922 36.2109 58.0118C36.1784 57.8313 36.1193 57.6699 36.0333 57.5274C35.95 57.3823 35.8361 57.2677 35.6916 57.1834C35.5496 57.0992 35.3694 57.0567 35.151 57.056C34.9808 57.0555 34.8258 57.0842 34.6859 57.1422C34.5486 57.1976 34.4302 57.2836 34.3308 57.4001C34.2314 57.5166 34.1535 57.6637 34.097 57.8413C34.0432 58.0164 34.0158 58.2233 34.0151 58.462L33.5698 58.3235C33.571 57.9248 33.6432 57.5834 33.7863 57.2994C33.932 57.0128 34.1346 56.7938 34.3941 56.6422C34.6562 56.4881 34.9638 56.4116 35.3168 56.4127C35.5835 56.4135 35.8107 56.4562 35.9983 56.5406C36.186 56.625 36.3419 56.7372 36.4659 56.8773C36.5899 57.0148 36.6872 57.17 36.7578 57.343C36.8283 57.5134 36.8773 57.6875 36.9047 57.8654C36.9346 58.0407 36.9494 58.2071 36.9489 58.3646L36.9417 60.6389L36.256 60.6368ZM33.3226 60.6276L33.3355 56.5132L33.945 56.5151L33.9415 57.6161L34.0177 57.6163L34.0083 60.6297L33.3226 60.6276ZM39.4862 60.7574C38.996 60.7559 38.5938 60.6479 38.2795 60.4336C37.9678 60.2167 37.777 59.9152 37.7071 59.5289L38.4008 59.4206C38.456 59.6443 38.5837 59.8225 38.7839 59.9552C38.9841 60.0853 39.2328 60.1509 39.53 60.1518C39.8119 60.1527 40.033 60.0949 40.1934 59.9786C40.3538 59.8623 40.4343 59.7038 40.4349 59.5032C40.4353 59.3863 40.4089 59.2923 40.3558 59.221C40.3027 59.1472 40.1924 59.0783 40.025 59.0142C39.8601 58.9502 39.6102 58.8733 39.2752 58.7833C38.9123 58.6857 38.6269 58.5844 38.419 58.4797C38.211 58.3749 38.0628 58.2538 37.9744 58.1163C37.8859 57.9789 37.842 57.8124 37.8426 57.6169C37.8434 57.3756 37.9101 57.165 38.0427 56.9851C38.1753 56.8026 38.3599 56.6622 38.5964 56.5639C38.8355 56.4656 39.1125 56.417 39.4274 56.418C39.7398 56.4189 40.019 56.4693 40.265 56.5692C40.5111 56.669 40.7088 56.8106 40.858 56.9939C41.0099 57.1747 41.0994 57.3858 41.1265 57.6272L40.4328 57.7507C40.4005 57.5296 40.2943 57.3553 40.1144 57.2278C39.937 57.1002 39.7074 57.0322 39.4255 57.0237C39.1588 57.0127 38.9415 57.059 38.7736 57.1626C38.6082 57.2662 38.5252 57.4069 38.5246 57.5847C38.5243 57.6838 38.5545 57.7689 38.6153 57.8402C38.6785 57.9116 38.7939 57.9792 38.9613 58.0432C39.1313 58.1073 39.3774 58.1804 39.6997 58.2627C40.0626 58.3553 40.348 58.4565 40.5559 58.5664C40.7664 58.6737 40.9159 58.8012 41.0043 58.9487C41.0927 59.0938 41.1366 59.273 41.1359 59.4863C41.1347 59.8825 40.9877 60.1945 40.6949 60.4221C40.4021 60.6472 39.9992 60.759 39.4862 60.7574ZM43.7551 60.7746C43.3512 60.7733 42.9985 60.6833 42.6968 60.5046C42.3977 60.3233 42.1648 60.0724 41.9982 59.7519C41.8316 59.4288 41.7489 59.0527 41.7503 58.6234C41.7517 58.1739 41.8355 57.7856 42.0016 57.4585C42.1677 57.1288 42.3983 56.8756 42.6935 56.6987C42.9912 56.5193 43.3395 56.4302 43.7382 56.4315C44.1522 56.4328 44.5036 56.5291 44.7926 56.7205C45.0841 56.9119 45.3016 57.1843 45.4453 57.5378C45.5915 57.8913 45.6537 58.3119 45.6318 58.7994L44.9461 58.7973L44.9468 58.5535C44.9408 58.048 44.8391 57.6705 44.6418 57.421C44.4445 57.169 44.1503 57.0423 43.7591 57.0411C43.3401 57.0398 43.0209 57.1734 42.8017 57.4419C42.5824 57.7105 42.472 58.0962 42.4704 58.599C42.4689 59.0841 42.5769 59.4604 42.7945 59.7277C43.0121 59.9951 43.3228 60.1294 43.7266 60.1307C43.9984 60.1315 44.2347 60.07 44.4358 59.9462C44.6368 59.8224 44.7948 59.6438 44.9099 59.4105L45.5606 59.6373C45.3995 60 45.1573 60.2812 44.8341 60.4808C44.5135 60.6779 44.1538 60.7758 43.7551 60.7746ZM42.2412 58.7888L42.2429 58.244L45.283 58.2535L45.2813 58.7983L42.2412 58.7888ZM48.2072 60.7885C47.7907 60.7872 47.4366 60.6934 47.1452 60.5071C46.8562 60.3183 46.6361 60.0598 46.4847 59.7317C46.3333 59.4036 46.2558 59.03 46.252 58.6109C46.2584 58.1817 46.3396 57.8048 46.4956 57.4802C46.6541 57.153 46.8796 56.8985 47.1723 56.7165C47.4649 56.5346 47.817 56.4443 48.2284 56.4456C48.6627 56.4469 49.0357 56.5548 49.3474 56.7691C49.6617 56.9834 49.8716 57.2761 49.9771 57.6473L49.306 57.8471C49.2204 57.6081 49.08 57.4222 48.8848 57.2896C48.6922 57.1569 48.4702 57.0902 48.2188 57.0894C47.9369 57.0885 47.7043 57.1538 47.521 57.2853C47.3377 57.4142 47.2013 57.5941 47.1117 57.825C47.022 58.0533 46.9755 58.316 46.972 58.6131C46.9757 59.0703 47.0799 59.4402 47.2848 59.7227C47.4921 60.0028 47.8003 60.1434 48.2092 60.1447C48.4784 60.1456 48.7021 60.0853 48.8803 59.9639C49.0584 59.8401 49.1936 59.6614 49.2858 59.4281L49.971 59.6093C49.8275 59.9923 49.6044 60.285 49.3015 60.4872C48.9986 60.6894 48.6339 60.7899 48.2072 60.7885ZM53.0423 60.6894C52.7984 60.7369 52.557 60.7552 52.3183 60.7443C52.0822 60.7359 51.8715 60.6883 51.6864 60.6013C51.5012 60.5119 51.3607 60.3743 51.2648 60.1886C51.184 60.0258 51.1401 59.8618 51.133 59.6967C51.1284 59.5291 51.1265 59.3398 51.1272 59.129L51.1388 55.4261L51.8169 55.4282L51.8054 59.1007C51.8048 59.2683 51.8057 59.4118 51.8078 59.5312C51.8125 59.6506 51.8389 59.7535 51.8869 59.84C51.9778 60.0029 52.1223 60.0986 52.3203 60.1271C52.5208 60.1557 52.7621 60.1488 53.0442 60.1065L53.0423 60.6894ZM50.2991 57.1264L50.3009 56.5663L53.0552 56.575L53.0535 57.135L50.2991 57.1264ZM55.4891 60.8114C55.0853 60.8101 54.7325 60.7201 54.4309 60.5414C54.1317 60.3601 53.8988 60.1092 53.7322 59.7887C53.5656 59.4656 53.483 59.0894 53.4843 58.6602C53.4857 58.2107 53.5695 57.8224 53.7356 57.4952C53.9017 57.1656 54.1324 56.9123 54.4275 56.7355C54.7253 56.5561 55.0735 56.467 55.4722 56.4683C55.8862 56.4696 56.2377 56.5659 56.5266 56.7573C56.8181 56.9487 57.0357 57.2211 57.1793 57.5746C57.3255 57.9281 57.3877 58.3486 57.3659 58.8362L56.6801 58.8341L56.6809 58.5902C56.6748 58.0848 56.5732 57.7073 56.3758 57.4578C56.1785 57.2057 55.8843 57.0791 55.4932 57.0779C55.0741 57.0766 54.755 57.2102 54.5357 57.4787C54.3164 57.7472 54.206 58.1329 54.2044 58.6358C54.2029 59.1209 54.3109 59.4971 54.5285 59.7645C54.7461 60.0319 55.0568 60.1662 55.4606 60.1674C55.7324 60.1683 55.9688 60.1068 56.1698 59.983C56.3709 59.8592 56.5289 59.6806 56.6439 59.4473L57.2947 59.6741C57.1335 60.0368 56.8913 60.318 56.5682 60.5176C56.2475 60.7147 55.8878 60.8126 55.4891 60.8114ZM53.9753 58.8256L53.977 58.2808L57.0171 58.2903L57.0154 58.8351L53.9753 58.8256ZM60.5054 60.7128C60.2614 60.7603 60.0201 60.7786 59.7814 60.7677C59.5452 60.7593 59.3346 60.7117 59.1494 60.6247C58.9643 60.5353 58.8238 60.3977 58.7278 60.212C58.6471 60.0492 58.6032 59.8852 58.596 59.7201C58.5915 59.5525 58.5895 59.3632 58.5902 59.1524L58.6018 55.4495L59.2799 55.4516L59.2684 59.1241C59.2679 59.2917 59.2687 59.4352 59.2709 59.5546C59.2756 59.674 59.3019 59.7769 59.3499 59.8634C59.4408 60.0263 59.5853 60.122 59.7833 60.1505C59.9839 60.1791 60.2252 60.1722 60.5072 60.1299L60.5054 60.7128ZM57.7622 57.1498L57.7639 56.5897L60.5183 56.5984L60.5165 57.1584L57.7622 57.1498ZM62.9024 60.827C62.6382 60.8262 62.411 60.7835 62.2208 60.6991C62.0331 60.6147 61.8773 60.5025 61.7533 60.3624C61.6293 60.2223 61.532 60.0671 61.4614 59.8967C61.3908 59.7263 61.3406 59.5522 61.3107 59.3743C61.2833 59.1964 61.2698 59.03 61.2703 58.8751L61.2774 56.6008L61.9632 56.6029L61.9567 58.6639C61.9561 58.8569 61.9733 59.0437 62.0083 59.2241C62.0433 59.4045 62.1025 59.5673 62.1858 59.7123C62.2717 59.8573 62.3857 59.972 62.5276 60.0563C62.6721 60.1405 62.8523 60.183 63.0682 60.1837C63.2384 60.1842 63.3934 60.1555 63.5332 60.0975C63.6731 60.0395 63.7928 59.9535 63.8922 59.8396C63.9916 59.7231 64.0682 59.576 64.1221 59.3984C64.176 59.2207 64.2033 59.0138 64.2041 58.7776L64.6494 58.9162C64.6481 59.3124 64.5747 59.6538 64.429 59.9403C64.2859 60.2269 64.0833 60.4472 63.8212 60.6013C63.5617 60.7529 63.2554 60.8281 62.9024 60.827ZM64.2742 60.7246L64.2776 59.6236L64.2014 59.6234L64.2109 56.6099L64.8928 56.6121L64.8799 60.7265L64.2742 60.7246ZM67.7291 60.8497C67.3253 60.8485 66.9725 60.7585 66.6709 60.5797C66.3717 60.3985 66.1389 60.1476 65.9722 59.827C65.8056 59.504 65.723 59.1278 65.7243 58.6986C65.7257 58.2491 65.8095 57.8607 65.9756 57.5336C66.1417 57.204 66.3724 56.9507 66.6676 56.7738C66.9653 56.5945 67.3135 56.5054 67.7122 56.5066C68.1262 56.5079 68.4777 56.6043 68.7666 56.7957C69.0581 56.9871 69.2757 57.2595 69.4193 57.613C69.5655 57.9665 69.6277 58.387 69.6059 58.8746L68.9201 58.8724L68.9209 58.6286C68.9149 58.1232 68.8132 57.7457 68.6159 57.4962C68.4185 57.2441 68.1243 57.1175 67.7332 57.1163C67.3141 57.1149 66.995 57.2485 66.7757 57.5171C66.5564 57.7856 66.446 58.1713 66.4444 58.6742C66.4429 59.1593 66.551 59.5355 66.7685 59.8029C66.9861 60.0702 67.2968 60.2045 67.7006 60.2058C67.9724 60.2067 68.2088 60.1452 68.4098 60.0214C68.6109 59.8975 68.7689 59.719 68.8839 59.4857L69.5347 59.7125C69.3735 60.0752 69.1314 60.3563 68.8082 60.556C68.4875 60.7531 68.1279 60.851 67.7291 60.8497ZM66.2153 58.864L66.217 58.3192L69.2571 58.3287L69.2554 58.8735L66.2153 58.864ZM70.4482 60.744L70.4611 56.6295L71.0668 56.6314L71.0637 57.6258L70.9651 57.4959C71.0137 57.3691 71.0763 57.2525 71.1528 57.146C71.2319 57.0396 71.3198 56.9522 71.4165 56.884C71.5235 56.798 71.6443 56.7323 71.7791 56.687C71.9138 56.6417 72.051 56.6155 72.1908 56.6083C72.3305 56.5986 72.4613 56.6079 72.5831 56.6362L72.5811 57.2724C72.439 57.2339 72.2828 57.2232 72.1126 57.2405C71.9424 57.2577 71.7847 57.3194 71.6396 57.4257C71.5072 57.5192 71.404 57.6332 71.3299 57.7676C71.2584 57.9019 71.2084 58.0478 71.18 58.2052C71.1516 58.36 71.1371 58.5187 71.1366 58.6813L71.1301 60.7461L70.4482 60.744ZM75.9851 60.8756C75.6778 60.8747 75.4202 60.818 75.2123 60.7056C75.0069 60.5906 74.8512 60.4403 74.7451 60.2546C74.6415 60.0688 74.5901 59.8655 74.5908 59.6445C74.5915 59.4286 74.6327 59.2421 74.7145 59.0849C74.7988 58.9251 74.916 58.7934 75.0662 58.6898C75.2164 58.5836 75.3957 58.5003 75.6042 58.44C75.7999 58.3873 76.0185 58.3423 76.2598 58.3049C76.5038 58.2651 76.7503 58.229 76.9993 58.1968C77.2483 58.1645 77.4808 58.1335 77.6967 58.1037L77.4525 58.2439C77.4612 57.8782 77.3884 57.6075 77.2341 57.4318C77.0822 57.256 76.8184 57.1676 76.4425 57.1664C76.1936 57.1656 75.975 57.2221 75.7867 57.3358C75.6009 57.447 75.4696 57.6294 75.3926 57.8832L74.7493 57.6868C74.8495 57.3265 75.0422 57.0439 75.3273 56.8391C75.6124 56.6343 75.9873 56.5326 76.4521 56.534C76.8254 56.5352 77.1452 56.6035 77.4115 56.739C77.6803 56.8719 77.8727 57.0731 77.9887 57.3427C78.0467 57.4699 78.0831 57.6084 78.0978 57.7583C78.1126 57.9056 78.1197 58.0606 78.1192 58.2231L78.1113 60.768L77.5093 60.7661L77.5124 59.7794L77.6531 59.8713C77.4971 60.2035 77.2792 60.4543 76.9993 60.6235C76.7219 60.7928 76.3839 60.8769 75.9851 60.8756ZM76.0898 60.3083C76.3336 60.3091 76.5445 60.2666 76.7226 60.1808C76.9032 60.0924 77.0483 59.9773 77.1579 59.8354C77.2676 59.691 77.3392 59.5338 77.3728 59.3637C77.4113 59.2368 77.432 59.0959 77.4351 58.941C77.4406 58.7836 77.4435 58.6629 77.4438 58.5791L77.6797 58.6827C77.4586 58.7125 77.2414 58.741 77.028 58.7683C76.8145 58.7956 76.6125 58.8254 76.4219 58.8579C76.2314 58.8877 76.0598 58.924 75.9073 58.9667C75.7954 59.0019 75.6899 59.0473 75.5907 59.1029C75.494 59.1584 75.415 59.2306 75.3538 59.3193C75.2951 59.4055 75.2655 59.5133 75.2651 59.6428C75.2648 59.7546 75.2924 59.8613 75.3479 59.9631C75.406 60.0649 75.4947 60.1477 75.6138 60.2116C75.7356 60.2754 75.8942 60.3077 76.0898 60.3083ZM80.7167 60.8905C80.3332 60.8892 80.0046 60.793 79.7309 60.6016C79.4572 60.4078 79.246 60.1468 79.0971 59.8187C78.9509 59.4906 78.8784 59.1208 78.8797 58.7094C78.8809 58.2979 78.9558 57.9286 79.1041 57.6014C79.255 57.2743 79.4678 57.0172 79.7427 56.8301C80.0176 56.6405 80.3455 56.5462 80.7265 56.5474C81.1151 56.5486 81.4412 56.6436 81.7047 56.8324C81.9683 57.0212 82.1668 57.2796 82.3004 57.6077C82.4365 57.9357 82.5039 58.3067 82.5026 58.7207C82.5014 59.1296 82.4316 59.4989 82.2934 59.8287C82.1578 60.1559 81.9576 60.4156 81.6929 60.6078C81.4281 60.7974 81.1028 60.8917 80.7167 60.8905ZM80.8025 60.2697C81.0793 60.2706 81.3068 60.2053 81.485 60.0738C81.6632 59.9397 81.7946 59.756 81.8791 59.5226C81.9662 59.2867 82.0103 59.0189 82.0112 58.7192C82.0121 58.4144 81.9698 58.1463 81.8842 57.9149C81.8011 57.681 81.6721 57.499 81.4973 57.3689C81.3225 57.2363 81.1005 57.1696 80.8312 57.1687C80.5519 57.1679 80.3205 57.2357 80.1372 57.3723C79.9565 57.5089 79.8213 57.6939 79.7317 57.9272C79.6446 58.1606 79.6006 58.4221 79.5997 58.7116C79.5988 59.0037 79.6424 59.268 79.7305 59.5044C79.8187 59.7384 79.9514 59.9242 80.1288 60.0619C80.3087 60.1996 80.5332 60.2689 80.8025 60.2697ZM82.0047 60.7802L82.0142 57.7515L81.938 57.7513L81.9457 55.2941L82.6277 55.2962L82.6105 60.7821L82.0047 60.7802ZM83.7692 55.9436L83.7714 55.2426L84.4495 55.2448L84.4473 55.9457L83.7692 55.9436ZM83.754 60.7857L83.7669 56.6713L84.445 56.6734L84.4321 60.7878L83.754 60.7857ZM87.4644 60.9116C87.0784 60.9104 86.7536 60.8141 86.4901 60.6228C86.2265 60.429 86.0267 60.168 85.8906 59.84C85.757 59.5094 85.6909 59.1396 85.6922 58.7307C85.6934 58.3167 85.7619 57.9461 85.8976 57.6189C86.0357 57.2917 86.2372 57.0346 86.5019 56.8475C86.7692 56.6603 87.0958 56.5674 87.4819 56.5686C87.8628 56.5698 88.1902 56.6661 88.4639 56.8574C88.7401 57.0462 88.9514 57.3047 89.0977 57.6328C89.2439 57.9609 89.3164 58.3306 89.3151 58.7421C89.3138 59.1535 89.239 59.5228 89.0907 59.85C88.9424 60.1772 88.7295 60.4368 88.452 60.629C88.1771 60.8186 87.8479 60.9128 87.4644 60.9116ZM85.5657 62.62L85.5843 56.677L86.19 56.6788L86.1805 59.7075L86.2567 59.7078L86.2476 62.6222L85.5657 62.62ZM87.3826 60.2904C87.6543 60.2912 87.8793 60.2234 88.0575 60.0868C88.2357 59.9502 88.3697 59.7652 88.4593 59.5318C88.5489 59.2959 88.5942 59.0319 88.5951 58.7398C88.596 58.4503 88.5524 58.1885 88.4642 57.9546C88.3786 57.7207 88.2446 57.5349 88.0622 57.3971C87.8823 57.2594 87.6526 57.1901 87.3732 57.1892C87.1066 57.1884 86.8854 57.2538 86.7097 57.3853C86.5341 57.5143 86.4027 57.6954 86.3156 57.9288C86.2286 58.1597 86.1846 58.4275 86.1836 58.7323C86.1827 59.0319 86.2237 59.3 86.3068 59.5365C86.3924 59.7704 86.5239 59.955 86.7013 60.0901C86.8786 60.2228 87.1057 60.2895 87.3826 60.2904ZM90.2352 55.9639L90.2374 55.2629L90.9155 55.265L90.9133 55.966L90.2352 55.9639ZM90.22 60.806L90.2329 56.6915L90.911 56.6936L90.8981 60.8081L90.22 60.806ZM93.5952 60.927C93.105 60.9255 92.7028 60.8175 92.3885 60.6032C92.0768 60.3864 91.886 60.0848 91.8161 59.6985L92.5098 59.5902C92.565 59.8139 92.6927 59.9921 92.8929 60.1248C93.0932 60.2549 93.3419 60.3205 93.639 60.3214C93.9209 60.3223 94.1421 60.2646 94.3024 60.1482C94.4628 60.0319 94.5433 59.8734 94.5439 59.6728C94.5443 59.556 94.5179 59.4619 94.4648 59.3906C94.4117 59.3168 94.3014 59.2479 94.134 59.1839C93.9691 59.1199 93.7192 59.0429 93.3842 58.9529C93.0213 58.8553 92.7359 58.7541 92.528 58.6493C92.3201 58.5445 92.1719 58.4234 92.0834 58.286C91.9949 58.1485 91.951 57.982 91.9516 57.7865C91.9524 57.5452 92.0191 57.3346 92.1517 57.1547C92.2844 56.9723 92.4689 56.8319 92.7054 56.7336C92.9445 56.6353 93.2215 56.5866 93.5364 56.5876C93.8488 56.5886 94.128 56.639 94.3741 56.7388C94.6201 56.8386 94.8178 56.9802 94.9671 57.1635C95.1189 57.3443 95.2084 57.5554 95.2356 57.7968L94.5418 57.9203C94.5095 57.6993 94.4034 57.525 94.2234 57.3974C94.046 57.2699 93.8164 57.2018 93.5345 57.1933C93.2679 57.1823 93.0506 57.2286 92.8826 57.3322C92.7172 57.4359 92.6342 57.5766 92.6337 57.7543C92.6334 57.8534 92.6636 57.9386 92.7243 58.0099C92.7876 58.0812 92.9029 58.1488 93.0703 58.2129C93.2403 58.2769 93.4864 58.35 93.8087 58.4323C94.1716 58.5249 94.4571 58.6261 94.665 58.736C94.8754 58.8433 95.0249 58.9708 95.1133 59.1184C95.2018 59.2634 95.2456 59.4426 95.245 59.6559C95.2437 60.0521 95.0967 60.3641 94.8039 60.5917C94.5111 60.8169 94.1082 60.9286 93.5952 60.927ZM97.8146 60.9441C97.398 60.9427 97.044 60.8489 96.7525 60.6626C96.4636 60.4738 96.2434 60.2153 96.0921 59.8872C95.9407 59.5591 95.8632 59.1855 95.8594 58.7664C95.8658 58.3372 95.947 57.9603 96.103 57.6357C96.2614 57.3085 96.487 57.054 96.7797 56.8721C97.0723 56.6901 97.4244 56.5998 97.8358 56.6011C98.2701 56.6024 98.6431 56.7103 98.9548 56.9246C99.2691 57.1389 99.479 57.4317 99.5845 57.8028L98.9134 58.0026C98.8278 57.7636 98.6874 57.5777 98.4922 57.4451C98.2996 57.3124 98.0776 57.2457 97.8262 57.2449C97.5442 57.244 97.3117 57.3093 97.1284 57.4408C96.9451 57.5697 96.8087 57.7496 96.719 57.9805C96.6294 58.2088 96.5829 58.4715 96.5794 58.7687C96.5831 59.2258 96.6873 59.5957 96.8922 59.8783C97.0995 60.1583 97.4077 60.2989 97.8166 60.3002C98.0858 60.3011 98.3095 60.2408 98.4877 60.1195C98.6658 59.9956 98.801 59.8169 98.8932 59.5836L99.5783 59.7648C99.4349 60.1478 99.2118 60.4405 98.9089 60.6427C98.606 60.8449 98.2412 60.9454 97.8146 60.9441ZM100.332 55.9955L100.334 55.2946L101.013 55.2967L101.01 55.9977L100.332 55.9955ZM100.317 60.8376L100.33 56.7232L101.008 56.7253L100.995 60.8397L100.317 60.8376ZM105.068 60.8525L105.074 58.7915C105.075 58.5959 105.058 58.4079 105.023 58.2275C104.99 58.047 104.931 57.8856 104.845 57.7431C104.762 57.5981 104.648 57.4834 104.503 57.3991C104.362 57.3149 104.181 57.2724 103.963 57.2717C103.793 57.2712 103.638 57.2999 103.498 57.3579C103.361 57.4133 103.242 57.4993 103.143 57.6158C103.043 57.7324 102.965 57.8794 102.909 58.057C102.855 58.2321 102.828 58.439 102.827 58.6778L102.382 58.5392C102.383 58.1405 102.455 57.7991 102.598 57.5151C102.744 57.2285 102.947 57.0095 103.206 56.8579C103.468 56.7038 103.776 56.6273 104.129 56.6284C104.395 56.6292 104.623 56.6719 104.81 56.7563C104.998 56.8407 105.154 56.9529 105.278 57.093C105.402 57.2305 105.499 57.3858 105.57 57.5587C105.64 57.7291 105.689 57.9032 105.717 58.0811C105.747 58.2564 105.761 58.4228 105.761 58.5803L105.754 60.8546L105.068 60.8525ZM102.134 60.8433L102.147 56.7289L102.757 56.7308L102.753 57.8318L102.83 57.832L102.82 60.8455L102.134 60.8433ZM108.403 62.8059C108.187 62.8052 107.976 62.7715 107.771 62.7049C107.565 62.6382 107.376 62.5373 107.204 62.4021C107.034 62.2695 106.893 62.1014 106.779 61.8979L107.401 61.5722C107.502 61.7732 107.645 61.9197 107.83 62.0117C108.018 62.1037 108.211 62.15 108.409 62.1506C108.67 62.1515 108.888 62.1039 109.061 62.0079C109.234 61.9145 109.361 61.7739 109.443 61.5862C109.527 61.3986 109.569 61.165 109.567 60.8857L109.571 59.7618L109.651 59.7621L109.66 56.7524L110.262 56.7543L110.249 60.8954C110.249 61.0072 110.244 61.1151 110.236 61.2192C110.231 61.3233 110.218 61.4261 110.197 61.5277C110.143 61.8196 110.037 62.0592 109.879 62.2467C109.721 62.4367 109.517 62.577 109.268 62.6677C109.019 62.7608 108.73 62.8069 108.403 62.8059ZM108.359 60.9771C107.976 60.9759 107.647 60.8796 107.373 60.6883C107.1 60.4944 106.888 60.2334 106.739 59.9053C106.593 59.5772 106.521 59.2075 106.522 58.796C106.523 58.3846 106.598 58.0153 106.746 57.6881C106.897 57.3609 107.11 57.1038 107.385 56.9167C107.66 56.7271 107.988 56.6329 108.369 56.6341C108.757 56.6353 109.083 56.7303 109.347 56.9191C109.611 57.1078 109.809 57.3663 109.943 57.6943C110.079 58.0224 110.146 58.3934 110.145 58.8074C110.144 59.2163 110.074 59.5856 109.936 59.9153C109.8 60.2425 109.6 60.5022 109.335 60.6944C109.07 60.8841 108.745 60.9783 108.359 60.9771ZM108.445 60.3564C108.722 60.3573 108.949 60.2919 109.127 60.1604C109.306 60.0264 109.437 59.8427 109.521 59.6093C109.609 59.3733 109.653 59.1055 109.654 58.8058C109.654 58.5011 109.612 58.233 109.527 58.0016C109.443 57.7677 109.314 57.5857 109.14 57.4556C108.965 57.323 108.743 57.2562 108.474 57.2554C108.194 57.2545 107.963 57.3224 107.78 57.4589C107.599 57.5955 107.464 57.7805 107.374 58.0139C107.287 58.2473 107.243 58.5087 107.242 58.7983C107.241 59.0903 107.285 59.3546 107.373 59.5911C107.461 59.825 107.594 60.0109 107.771 60.1486C107.951 60.2863 108.176 60.3556 108.445 60.3564ZM114.621 60.9967C114.217 60.9955 113.864 60.9055 113.562 60.7267C113.263 60.5455 113.03 60.2946 112.864 59.974C112.697 59.651 112.615 59.2748 112.616 58.8456C112.617 58.3961 112.701 58.0077 112.867 57.6806C113.033 57.351 113.264 57.0977 113.559 56.9208C113.857 56.7415 114.205 56.6524 114.604 56.6536C115.018 56.6549 115.369 56.7513 115.658 56.9427C115.95 57.1341 116.167 57.4065 116.311 57.76C116.457 58.1135 116.519 58.534 116.497 59.0216L115.812 59.0194L115.812 58.7756C115.806 58.2702 115.705 57.8927 115.507 57.6432C115.31 57.3911 115.016 57.2645 114.625 57.2632C114.206 57.2619 113.886 57.3955 113.667 57.6641C113.448 57.9326 113.338 58.3183 113.336 58.8212C113.334 59.3063 113.442 59.6825 113.66 59.9499C113.878 60.2172 114.188 60.3515 114.592 60.3528C114.864 60.3537 115.1 60.2922 115.301 60.1684C115.502 60.0445 115.66 59.866 115.775 59.6327L116.426 59.8595C116.265 60.2222 116.023 60.5033 115.7 60.703C115.379 60.9001 115.019 60.998 114.621 60.9967ZM113.107 59.0109L113.108 58.4662L116.149 58.4757L116.147 59.0205L113.107 59.0109ZM117.416 60.8912L117.433 55.291L118.112 55.2931L118.094 60.8933L117.416 60.8912ZM119.328 56.0551L119.331 55.3541L120.009 55.3562L120.007 56.0572L119.328 56.0551ZM119.313 60.8972L119.326 56.7827L120.004 56.7849L119.991 60.8993L119.313 60.8972ZM123.432 60.9101C123.188 60.9576 122.946 60.9758 122.708 60.9649C122.472 60.9566 122.261 60.9089 122.076 60.822C121.891 60.7325 121.75 60.5949 121.654 60.4092C121.573 60.2464 121.529 60.0825 121.522 59.9174C121.518 59.7497 121.516 59.5605 121.517 59.3497L121.528 55.6467L122.206 55.6488L122.195 59.3214C122.194 59.489 122.195 59.6325 122.197 59.7519C122.202 59.8712 122.228 59.9742 122.276 60.0607C122.367 60.2235 122.512 60.3192 122.71 60.3478C122.91 60.3763 123.151 60.3695 123.434 60.3272L123.432 60.9101ZM120.688 57.347L120.69 56.787L123.445 56.7956L123.443 57.3557L120.688 57.347ZM127.407 61.0368C127.024 61.0356 126.695 60.9393 126.422 60.748C126.148 60.5541 125.937 60.2931 125.788 59.965C125.641 59.6369 125.569 59.2672 125.57 58.8557C125.572 58.4443 125.646 58.075 125.795 57.7478C125.946 57.4206 126.158 57.1635 126.433 56.9764C126.708 56.7868 127.036 56.6926 127.417 56.6938C127.806 56.695 128.132 56.79 128.395 56.9788C128.659 57.1676 128.857 57.426 128.991 57.754C129.127 58.0821 129.195 58.4531 129.193 58.8671C129.192 59.276 129.122 59.6453 128.984 59.975C128.848 60.3023 128.648 60.562 128.383 60.7542C128.119 60.9438 127.793 61.038 127.407 61.0368ZM127.493 60.4161C127.77 60.417 127.997 60.3517 128.176 60.2201C128.354 60.0861 128.485 59.9024 128.57 59.669C128.657 59.433 128.701 59.1652 128.702 58.8655C128.703 58.5608 128.66 58.2927 128.575 58.0613C128.492 57.8274 128.363 57.6454 128.188 57.5153C128.013 57.3827 127.791 57.316 127.522 57.3151C127.242 57.3142 127.011 57.3821 126.828 57.5187C126.647 57.6552 126.512 57.8402 126.422 58.0736C126.335 58.307 126.291 58.5684 126.29 58.858C126.289 59.1501 126.333 59.4143 126.421 59.6508C126.509 59.8847 126.642 60.0706 126.819 60.2083C126.999 60.346 127.224 60.4153 127.493 60.4161ZM128.695 60.9266L128.705 57.8979L128.629 57.8977L128.636 55.4404L129.318 55.4426L129.301 60.9285L128.695 60.9266ZM132.121 61.0516C131.712 61.0503 131.359 60.9565 131.062 60.7702C130.768 60.5838 130.542 60.3266 130.383 59.9985C130.224 59.6703 130.145 59.2942 130.146 58.8701C130.148 58.4383 130.23 58.0601 130.394 57.7356C130.557 57.411 130.788 57.159 131.086 56.9796C131.383 56.7977 131.733 56.7073 132.134 56.7086C132.546 56.7099 132.9 56.8037 133.196 56.99C133.493 57.1738 133.719 57.4298 133.876 57.7579C134.035 58.0835 134.114 58.4584 134.112 58.8825C134.111 59.3117 134.03 59.6899 133.869 60.017C133.708 60.3416 133.478 60.5961 133.18 60.7806C132.883 60.9626 132.529 61.0529 132.121 61.0516ZM132.123 60.4078C132.549 60.4091 132.867 60.2679 133.076 59.9841C133.285 59.7003 133.391 59.3323 133.392 58.8802C133.394 58.4155 133.289 58.0456 133.079 57.7706C132.869 57.4931 132.554 57.3537 132.132 57.3524C131.845 57.3515 131.609 57.4155 131.423 57.5445C131.237 57.6734 131.098 57.8521 131.006 58.0803C130.914 58.3086 130.867 58.5726 130.866 58.8723C130.865 59.3346 130.97 59.7057 131.183 59.9858C131.395 60.2658 131.709 60.4065 132.123 60.4078ZM135.021 60.9464L135.038 55.3462L135.716 55.3483L135.699 60.9485L135.021 60.9464ZM138.594 61.0719C138.185 61.0706 137.832 60.9768 137.536 60.7905C137.242 60.6041 137.015 60.3469 136.856 60.0188C136.697 59.6906 136.618 59.3145 136.62 58.8904C136.621 58.4586 136.704 58.0804 136.867 57.7558C137.031 57.4313 137.261 57.1793 137.559 56.9999C137.857 56.818 138.206 56.7276 138.608 56.7289C139.019 56.7302 139.373 56.824 139.67 57.0103C139.966 57.1941 140.193 57.4501 140.349 57.7782C140.508 58.1038 140.587 58.4787 140.586 58.9028C140.584 59.332 140.503 59.7102 140.342 60.0373C140.181 60.3619 139.952 60.6164 139.654 60.8009C139.356 60.9828 139.003 61.0732 138.594 61.0719ZM138.596 60.4281C139.023 60.4294 139.341 60.2882 139.55 60.0044C139.759 59.7206 139.864 59.3526 139.866 58.9005C139.867 58.4358 139.763 58.0659 139.553 57.7909C139.343 57.5134 139.027 57.374 138.606 57.3727C138.319 57.3718 138.082 57.4358 137.896 57.5648C137.711 57.6937 137.572 57.8723 137.479 58.1006C137.387 58.3289 137.341 58.5929 137.34 58.8926C137.338 59.3549 137.444 59.726 137.656 60.006C137.869 60.2861 138.182 60.4268 138.596 60.4281ZM141.418 60.9664L141.431 56.852L142.037 56.8539L142.033 57.8482L141.935 57.7184C141.983 57.5916 142.046 57.4749 142.123 57.3685C142.202 57.2621 142.29 57.1747 142.386 57.1065C142.493 57.0204 142.614 56.9548 142.749 56.9095C142.884 56.8642 143.021 56.838 143.16 56.8308C143.3 56.8211 143.431 56.8304 143.553 56.8587L143.551 57.4949C143.409 57.4563 143.253 57.4457 143.082 57.4629C142.912 57.4802 142.754 57.5419 142.609 57.6481C142.477 57.7417 142.374 57.8557 142.3 57.99C142.228 58.1244 142.178 58.2703 142.15 58.4277C142.121 58.5825 142.107 58.7412 142.106 58.9038L142.1 60.9686L141.418 60.9664ZM145.296 61.0929C144.988 61.0919 144.731 61.0352 144.523 60.9228C144.317 60.8079 144.162 60.6576 144.056 60.4718C143.952 60.2861 143.901 60.0828 143.901 59.8618C143.902 59.6459 143.943 59.4594 144.025 59.3022C144.109 59.1424 144.226 59.0107 144.377 58.9071C144.527 58.8009 144.706 58.7176 144.915 58.6573C145.11 58.6046 145.329 58.5596 145.57 58.5222C145.814 58.4823 146.061 58.4463 146.31 58.4141C146.559 58.3818 146.791 58.3508 147.007 58.321L146.763 58.4612C146.772 58.0955 146.699 57.8248 146.545 57.649C146.393 57.4733 146.129 57.3849 145.753 57.3837C145.504 57.3829 145.285 57.4394 145.097 57.5531C144.911 57.6642 144.78 57.8467 144.703 58.1004L144.06 57.9041C144.16 57.5438 144.353 57.2612 144.638 57.0564C144.923 56.8515 145.298 56.7499 145.763 56.7513C146.136 56.7525 146.456 56.8208 146.722 56.9562C146.991 57.0891 147.183 57.2904 147.299 57.56C147.357 57.6871 147.394 57.8257 147.408 57.9756C147.423 58.1229 147.43 58.2779 147.43 58.4404L147.422 60.9853L146.82 60.9834L146.823 59.9967L146.964 60.0886C146.808 60.4208 146.59 60.6715 146.31 60.8408C146.032 61.0101 145.694 61.0941 145.296 61.0929ZM145.4 60.5256C145.644 60.5263 145.855 60.4838 146.033 60.398C146.214 60.3097 146.359 60.1946 146.468 60.0527C146.578 59.9083 146.65 59.751 146.683 59.581C146.722 59.4541 146.742 59.3132 146.746 59.1583C146.751 59.0009 146.754 58.8802 146.754 58.7964L146.99 58.9C146.769 58.9298 146.552 58.9583 146.338 58.9856C146.125 59.0129 145.923 59.0427 145.732 59.0751C145.542 59.105 145.37 59.1413 145.218 59.184C145.106 59.2192 145 59.2646 144.901 59.3202C144.804 59.3757 144.725 59.4479 144.664 59.5366C144.606 59.6227 144.576 59.7306 144.576 59.8601C144.575 59.9719 144.603 60.0786 144.658 60.1804C144.716 60.2822 144.805 60.365 144.924 60.4288C145.046 60.4927 145.205 60.525 145.4 60.5256ZM149.966 61.1037C149.476 61.1022 149.074 60.9943 148.76 60.7799C148.448 60.5631 148.257 60.2615 148.187 59.8752L148.881 59.7669C148.936 59.9906 149.064 60.1688 149.264 60.3015C149.464 60.4316 149.713 60.4972 150.01 60.4981C150.292 60.499 150.513 60.4413 150.673 60.325C150.834 60.2086 150.914 60.0501 150.915 59.8495C150.915 59.7327 150.889 59.6386 150.836 59.5673C150.783 59.4935 150.672 59.4246 150.505 59.3606C150.34 59.2966 150.09 59.2196 149.755 59.1296C149.392 59.032 149.107 58.9308 148.899 58.826C148.691 58.7212 148.543 58.6001 148.454 58.4627C148.366 58.3253 148.322 58.1588 148.323 57.9632C148.323 57.7219 148.39 57.5113 148.523 57.3314C148.655 57.149 148.84 57.0086 149.076 56.9103C149.316 56.812 149.592 56.7633 149.907 56.7643C150.22 56.7653 150.499 56.8157 150.745 56.9155C150.991 57.0153 151.189 57.1569 151.338 57.3402C151.49 57.521 151.579 57.7321 151.607 57.9735L150.913 58.097C150.88 57.876 150.774 57.7017 150.594 57.5741C150.417 57.4466 150.187 57.3785 149.906 57.37C149.639 57.359 149.422 57.4053 149.254 57.509C149.088 57.6126 149.005 57.7533 149.005 57.931C149.004 58.0301 149.035 58.1153 149.095 58.1866C149.159 58.2579 149.274 58.3256 149.441 58.3896C149.611 58.4536 149.857 58.5268 150.18 58.609C150.543 58.7016 150.828 58.8028 151.036 58.9127C151.246 59.02 151.396 59.1475 151.484 59.2951C151.573 59.4401 151.617 59.6193 151.616 59.8327C151.615 60.2289 151.468 60.5408 151.175 60.7685C150.882 60.9936 150.479 61.1053 149.966 61.1037ZM152.574 61.0014L152.577 60.2547L153.323 60.2571L153.321 61.0038L152.574 61.0014Z" fill="#3D3D3D"/>
<path d="M33.2547 20.3131L26.2247 20.291C25.5637 20.2889 25.0542 19.7016 25.2037 19.0577C25.5342 17.6337 26.0774 16.2737 26.8145 15.0316C27.7612 13.4363 29.0069 12.0707 30.4719 11.022L32.171 9.80524C32.635 9.473 32.7636 8.83885 32.4657 8.35211L32.0664 7.69946C31.7364 7.16029 31.0181 7.01461 30.5042 7.38264L28.9332 8.50759C26.8101 10.0189 25.0665 12.0702 23.8572 14.4794C22.6479 16.8887 22.0102 19.5814 22.0008 22.3187L21.974 30.8602C21.9715 31.6621 22.2653 32.432 22.7909 33.0007C23.3164 33.5694 24.0306 33.8902 24.7764 33.8925L33.2121 33.919C33.9578 33.9213 34.674 33.605 35.2031 33.0396C35.7322 32.4743 36.0309 31.7061 36.0334 30.9042L36.0571 23.3454C36.0596 22.5435 35.7658 21.7735 35.2402 21.2049C34.7147 20.6362 34.0005 20.3154 33.2547 20.3131ZM52.9379 20.3748L45.908 20.3527C45.2469 20.3506 44.7374 19.7633 44.8869 19.1194C45.2174 17.6954 45.7607 16.3354 46.4978 15.0933C47.4445 13.498 48.6901 12.1324 50.1551 11.0837L51.8576 9.86454C52.3202 9.5333 52.4496 8.90169 52.1546 8.4152L51.7604 7.76512C51.4324 7.22408 50.7137 7.07582 50.1983 7.44285L48.6165 8.5693C46.4933 10.0806 44.7498 12.1319 43.5404 14.5411C42.3311 16.9504 41.6934 19.6431 41.684 22.3804L41.6572 30.9219C41.6547 31.7238 41.9485 32.4937 42.4741 33.0624C42.9996 33.6311 43.7139 33.9519 44.4596 33.9542L52.8953 33.9807C53.641 33.983 54.3573 33.6667 54.8864 33.1013C55.4155 32.536 55.7141 31.7678 55.7166 30.9659L55.7403 23.4071C55.7429 22.6052 55.449 21.8352 54.9235 21.2666C54.3979 20.6979 53.6837 20.3771 52.9379 20.3748Z" fill="#00A4F4"/>
</g>
<defs>
<filter id="filter0_d_2001_1050" x="0.755175" y="0.382356" width="187.208" height="92.3317" filterUnits="userSpaceOnUse" color-interpolation-filters="sRGB">
<feFlood flood-opacity="0" result="BackgroundImageFix"/>
<feColorMatrix in="SourceAlpha" type="matrix" values="0 0 0 0 0 0 0 0 0 0 0 0 0 0 0 0 0 0 127 0" result="hardAlpha"/>
<feOffset dx="1.69909" dy="5.09727"/>
<feGaussianBlur stdDeviation="5.94681"/>
<feComposite in2="hardAlpha" operator="out"/>
<feColorMatrix type="matrix" values="0 0 0 0 0 0 0 0 0 0 0 0 0 0 0 0 0 0 0.06 0"/>
<feBlend mode="normal" in2="BackgroundImageFix" result="effect1_dropShadow_2001_1050"/>
<feBlend mode="normal" in="SourceGraphic" in2="effect1_dropShadow_2001_1050" result="shape"/>
</filter>
<linearGradient id="paint0_linear_2001_1050" x1="11.0999" y1="31.8796" x2="169.306" y2="80.5651" gradientUnits="userSpaceOnUse">
<stop stop-color="#FBFDFF"/>
<stop offset="1" stop-color="#E9F6FF"/>
</linearGradient>
<linearGradient id="paint1_linear_2001_1050" x1="11.0999" y1="31.8083" x2="162.655" y2="89.1801" gradientUnits="userSpaceOnUse">
<stop stop-color="#95DDFF"/>
<stop offset="1" stop-color="#C5ECFF"/>
</linearGradient>
</defs>
</svg>
